# Exported from Wings 3D 1.5.3
mtllib a1.mtl
o Cube2
#93 vertices, 95 faces
v -0.64200000 -0.46317303 -3.82400000
v -0.63400000 -0.76922297 3.82400000
v -0.64200000 0.28533046 -3.82400000
v -0.63400000 3.0299620e-2 3.82400000
v 0.64200000 -0.46317303 -3.82400000
v 0.63400000 -0.76922297 3.82400000
v 0.64200000 0.28533046 -3.82400000
v 0.63400000 3.0299620e-2 3.82400000
v 1.00000000 0.26107665 0.0000000e+0
v 1.00000000 -1.00000000 0.0000000e+0
v -1.00000000 0.26107665 0.0000000e+0
v -1.00000000 -1.00000000 0.0000000e+0
v -1.00000000 -1.00000000 1.91200000
v -1.00000000 0.26107665 1.91200000
v 1.00000000 -1.00000000 1.91200000
v 1.00000000 0.26107665 1.91200000
v 0.57200000 1.00000000 -1.91200000
v 1.00000000 -1.00000000 -1.91200000
v -0.57200000 1.00000000 -1.91200000
v -1.00000000 -1.00000000 -1.91200000
v 0.57200000 1.00000000 -2.86800000
v 1.00000000 -1.00000000 -2.86800000
v -0.57200000 1.00000000 -2.86800000
v -1.00000000 -1.00000000 -2.86800000
v 0.0000000e+0 -0.36946168 4.34340050
v 1.00000000 0.23136176 -1.91200000
v -1.00000000 0.23136176 -1.91200000
v 1.00000000 0.23136176 -2.86800000
v -1.00000000 0.23136176 -2.86800000
v -1.00000000 -0.30640300 1.71527204
v -1.00000000 -0.30640300 0.19672796
v -1.00000000 -0.43252035 0.19672796
v -1.00000000 -0.43252035 1.71527204
v 1.00000000 -0.30640300 0.19672796
v 1.00000000 -0.30640300 1.71527204
v 1.00000000 -0.43252035 1.71527204
v 1.00000000 -0.43252035 0.19672796
v 3.78660398 -0.30640300 -2.55678969
v 3.78660398 -0.30640300 -1.03824561
v 3.78660398 -0.43252035 -1.03824561
v 3.78660398 -0.43252035 -2.55678969
v -3.78660398 -0.30640300 -1.03824561
v -3.78660398 -0.30640300 -2.55678969
v -3.78660398 -0.43252035 -2.55678969
v -3.78660398 -0.43252035 -1.03824561
v 4.48914792 -0.18218181 -2.97148577
v 4.48914792 -0.18218181 -0.62354953
v 4.48914792 -0.55674154 -0.62354953
v 4.48914792 -0.55674154 -2.97148577
v -4.48914792 -0.18218181 -0.62354953
v -4.48914792 -0.18218181 -2.97148577
v -4.48914792 -0.55674154 -2.97148577
v -4.48914792 -0.55674154 -0.62354953
v 3.78660398 -0.18218181 -2.97148577
v 3.78660398 -0.18218181 -0.62354953
v 3.78660398 -0.55674154 -0.62354953
v 3.78660398 -0.55674154 -2.97148577
v -3.78660398 -0.18218181 -0.62354953
v -3.78660398 -0.18218181 -2.97148577
v -3.78660398 -0.55674154 -2.97148577
v -3.78660398 -0.55674154 -0.62354953
v 3.84241338 -0.23799121 -0.62354953
v 3.84241338 -0.50093214 -0.62354953
v 4.43333853 -0.50093214 -0.62354953
v 4.43333853 -0.23799121 -0.62354953
v 3.84241338 -0.50093214 -2.97148577
v 3.84241338 -0.23799121 -2.97148577
v 4.43333853 -0.23799121 -2.97148577
v 4.43333853 -0.50093214 -2.97148577
v -3.84241338 -0.23799121 -2.97148577
v -3.84241338 -0.50093214 -2.97148577
v -4.43333853 -0.50093214 -2.97148577
v -4.43333853 -0.23799121 -2.97148577
v -3.84241338 -0.50093214 -0.62354953
v -3.84241338 -0.23799121 -0.62354953
v -4.43333853 -0.23799121 -0.62354953
v -4.43333853 -0.50093214 -0.62354953
v -4.10325125 -0.18218181 -2.97148577
v -4.17250065 -0.18218181 -2.97148577
v -4.10325125 -0.18218181 -0.62354953
v -4.17250065 -0.18218181 -0.62354953
v 4.10325125 -0.18218181 -0.62354953
v 4.17250065 -0.18218181 -0.62354953
v 4.10325125 -0.18218181 -2.97148577
v 4.17250065 -0.18218181 -2.97148577
v -4.17250065 1.21576326 -2.68889642
v -4.10325125 1.21576326 -2.68889642
v -4.10325125 1.21576326 -3.35571031
v -4.17250065 1.21576326 -3.35571031
v 4.17250065 1.21576326 -3.35571031
v 4.10325125 1.21576326 -3.35571031
v 4.10325125 1.21576326 -2.68889642
v 4.17250065 1.21576326 -2.68889642
vn -0.41780766 -0.38900692 -0.82104225
vn -0.54914188 -0.60669583 0.57477245
vn -0.56787711 0.40570284 -0.71618489
vn -0.54914188 0.60669583 0.57477245
vn 0.41780766 -0.38900692 -0.82104225
vn 0.54914188 -0.60669583 0.57477245
vn 0.56787711 0.40570284 -0.71618489
vn 0.54914188 0.60669583 0.57477245
vn 0.84565348 0.52814214 7.7045936e-2
vn 0.83205029 -0.55470020 0.0000000e+0
vn -0.84565348 0.52814214 7.7045936e-2
vn -0.83205029 -0.55470020 0.0000000e+0
vn -0.82840166 -0.55356862 8.5512976e-2
vn -0.82840166 0.55356862 8.5512976e-2
vn 0.82840166 -0.55356862 8.5512976e-2
vn 0.82840166 0.55356862 8.5512976e-2
vn 0.51257245 0.85237993 0.10352746
vn 0.70710678 -0.70710678 0.0000000e+0
vn -0.51257245 0.85237993 0.10352746
vn -0.70710678 -0.70710678 0.0000000e+0
vn 0.50904360 0.81937962 -0.26361269
vn 0.68635930 -0.66347874 -0.29783700
vn -0.50904360 0.81937962 -0.26361269
vn -0.68635930 -0.66347874 -0.29783700
vn 0.0000000e+0 0.0000000e+0 1.00000000
vn 0.96790475 0.25130971 -1.9528069e-3
vn -0.96790475 0.25130971 -1.9528069e-3
vn 0.95398691 0.24915219 -0.16682974
vn -0.95398691 0.24915219 -0.16682974
vn -0.91054373 0.33688016 0.23962860
vn -0.72642177 0.56002290 -0.39835382
vn -0.72642177 -0.56002290 -0.39835382
vn -0.91054373 -0.33688016 0.23962860
vn 0.72642177 0.56002290 -0.39835382
vn 0.91054373 0.33688016 0.23962860
vn 0.91054373 -0.33688016 0.23962860
vn 0.72642177 -0.56002290 -0.39835382
vn -0.91054373 0.33688016 -0.23962860
vn -0.72642177 0.56002290 0.39835382
vn -0.72642177 -0.56002290 0.39835382
vn -0.91054373 -0.33688016 -0.23962860
vn 0.72642177 0.56002290 0.39835382
vn 0.91054373 0.33688016 -0.23962860
vn 0.91054373 -0.33688016 -0.23962860
vn 0.72642177 -0.56002290 0.39835382
vn 0.40824829 0.40824829 -0.81649658
vn 0.40824829 0.40824829 0.81649658
vn 0.40824829 -0.40824829 0.81649658
vn 0.40824829 -0.40824829 -0.81649658
vn -0.40824829 0.40824829 0.81649658
vn -0.40824829 0.40824829 -0.81649658
vn -0.40824829 -0.40824829 -0.81649658
vn -0.40824829 -0.40824829 0.81649658
vn -0.66666667 0.33333333 -0.66666667
vn -0.66666667 0.33333333 0.66666667
vn -0.66666667 -0.33333333 0.66666667
vn -0.66666667 -0.33333333 -0.66666667
vn 0.66666667 0.33333333 0.66666667
vn 0.66666667 0.33333333 -0.66666667
vn 0.66666667 -0.33333333 -0.66666667
vn 0.66666667 -0.33333333 0.66666667
vn 0.40824829 -0.40824829 0.81649658
vn 0.40824829 0.40824829 0.81649658
vn -0.40824829 0.40824829 0.81649658
vn -0.40824829 -0.40824829 0.81649658
vn 0.40824829 0.40824829 -0.81649658
vn 0.40824829 -0.40824829 -0.81649658
vn -0.40824829 -0.40824829 -0.81649658
vn -0.40824829 0.40824829 -0.81649658
vn -0.40824829 -0.40824829 -0.81649658
vn -0.40824829 0.40824829 -0.81649658
vn 0.40824829 0.40824829 -0.81649658
vn 0.40824829 -0.40824829 -0.81649658
vn -0.40824829 0.40824829 0.81649658
vn -0.40824829 -0.40824829 0.81649658
vn 0.40824829 -0.40824829 0.81649658
vn 0.40824829 0.40824829 0.81649658
vn 0.43039358 0.31632999 -0.84539736
vn -0.43039358 0.31632999 -0.84539736
vn 0.38412340 0.70222933 0.59943572
vn -0.38412340 0.70222933 0.59943572
vn -0.38412340 0.70222933 0.59943572
vn 0.38412340 0.70222933 0.59943572
vn -0.43039358 0.31632999 -0.84539736
vn 0.43039358 0.31632999 -0.84539736
vn -0.46342659 0.84720625 0.25976406
vn 0.46342659 0.84720625 0.25976406
vn 0.63629032 0.46765965 -0.61353816
vn -0.63629032 0.46765965 -0.61353816
vn 0.63629032 0.46765965 -0.61353816
vn -0.63629032 0.46765965 -0.61353816
vn -0.46342659 0.84720625 0.25976406
vn 0.46342659 0.84720625 0.25976406
g Cube2_default
usemtl default
s 1
f 1//1 5//5 22//22 24//24
f 2//2 13//13 15//15 6//6
f 2//2 25//25 4//4
f 3//3 7//7 5//5 1//1
f 3//3 29//29 23//23
f 4//4 14//14 13//13 2//2
f 4//4 25//25 8//8
f 5//5 7//7 28//28 22//22
f 6//6 15//15 16//16 8//8
f 6//6 25//25 2//2
f 8//8 16//16 14//14 4//4
f 8//8 25//25 6//6
f 9//9 11//11 14//14 16//16
f 9//9 17//17 19//19 11//11
f 9//9 26//26 17//17
f 9//9 34//34 37//37 10//10
f 10//10 18//18 26//26 9//9
f 10//10 37//37 36//36 15//15
f 11//11 27//27 20//20 12//12
f 11//11 31//31 30//30 14//14
f 12//12 20//20 18//18 10//10
f 12//12 32//32 31//31 11//11
f 13//13 33//33 32//32 12//12
f 14//14 30//30 33//33 13//13
f 15//15 13//13 12//12 10//10
f 15//15 36//36 35//35 16//16
f 16//16 35//35 34//34 9//9
f 17//17 21//21 23//23 19//19
f 19//19 27//27 11//11
f 20//20 24//24 22//22 18//18
f 21//21 28//28 7//7
f 22//22 28//28 26//26 18//18
f 23//23 21//21 7//7 3//3
f 23//23 29//29 27//27 19//19
f 24//24 29//29 3//3 1//1
f 26//26 28//28 21//21 17//17
f 27//27 29//29 24//24 20//20
f 30//30 42//42 45//45 33//33
f 31//31 43//43 42//42 30//30
f 32//32 44//44 43//43 31//31
f 33//33 45//45 44//44 32//32
f 34//34 38//38 41//41 37//37
f 35//35 39//39 38//38 34//34
f 36//36 40//40 39//39 35//35
f 37//37 41//41 40//40 36//36
f 38//38 54//54 57//57 41//41
f 39//39 55//55 54//54 38//38
f 40//40 56//56 55//55 39//39
f 41//41 57//57 56//56 40//40
f 42//42 58//58 61//61 45//45
f 43//43 59//59 58//58 42//42
f 44//44 60//60 59//59 43//43
f 45//45 61//61 60//60 44//44
f 46//46 85//85 83//83 47//47
f 47//47 48//48 49//49 46//46
f 47//47 65//65 64//64 48//48
f 48//48 56//56 57//57 49//49
f 48//48 64//64 63//63 56//56
f 49//49 69//69 68//68 46//46
f 50//50 81//81 79//79 51//51
f 51//51 52//52 53//53 50//50
f 51//51 73//73 72//72 52//52
f 52//52 60//60 61//61 53//53
f 52//52 72//72 71//71 60//60
f 53//53 77//77 76//76 50//50
f 54//54 55//55 82//82 84//84
f 54//54 67//67 66//66 57//57
f 55//55 62//62 65//65 47//47 83//83 82//82
f 56//56 63//63 62//62 55//55
f 57//57 66//66 69//69 49//49
f 58//58 59//59 78//78 80//80
f 58//58 75//75 74//74 61//61
f 59//59 70//70 73//73 51//51 79//79 78//78
f 60//60 71//71 70//70 59//59
f 61//61 74//74 77//77 53//53
f 62//62 67//67 68//68 65//65
f 63//63 66//66 67//67 62//62
f 64//64 69//69 66//66 63//63
f 65//65 68//68 69//69 64//64
f 70//70 75//75 76//76 73//73
f 71//71 74//74 75//75 70//70
f 72//72 77//77 74//74 71//71
f 73//73 76//76 77//77 72//72
f 78//78 88//88 87//87 80//80
f 79//79 89//89 88//88 78//78
f 80//80 81//81 50//50 76//76 75//75 58//58
f 80//80 87//87 86//86 81//81
f 81//81 86//86 89//89 79//79
f 82//82 92//92 91//91 84//84
f 83//83 93//93 92//92 82//82
f 84//84 85//85 46//46 68//68 67//67 54//54
f 84//84 91//91 90//90 85//85
f 85//85 90//90 93//93 83//83
f 87//87 88//88 89//89 86//86
f 91//91 92//92 93//93 90//90
