solid STL generated by MeshLab
  facet normal 0.000000e+000 0.000000e+000 1.000000e+000
    outer loop
      vertex  1.000000e+000 0.000000e+000 2.610767e-001
      vertex  -1.000000e+000 0.000000e+000 2.610767e-001
      vertex  -1.000000e+000 -1.912000e+000 2.610767e-001
    endloop
  endfacet
  facet normal 0.000000e+000 0.000000e+000 1.000000e+000
    outer loop
      vertex  1.000000e+000 0.000000e+000 2.610767e-001
      vertex  -1.000000e+000 -1.912000e+000 2.610767e-001
      vertex  1.000000e+000 -1.912000e+000 2.610767e-001
    endloop
  endfacet
  facet normal 0.000000e+000 0.000000e+000 -1.000000e+000
    outer loop
      vertex  -1.000000e+000 0.000000e+000 -1.000000e+000
      vertex  -1.000000e+000 1.912000e+000 -1.000000e+000
      vertex  1.000000e+000 0.000000e+000 -1.000000e+000
    endloop
  endfacet
  facet normal 0.000000e+000 0.000000e+000 -1.000000e+000
    outer loop
      vertex  -1.000000e+000 1.912000e+000 -1.000000e+000
      vertex  1.000000e+000 1.912000e+000 -1.000000e+000
      vertex  1.000000e+000 0.000000e+000 -1.000000e+000
    endloop
  endfacet
  facet normal -0.000000e+000 1.000000e+000 0.000000e+000
    outer loop
      vertex  -4.344611e-001 1.050384e+000 1.243798e-001
      vertex  4.344611e-001 1.050384e+000 1.243798e-001
      vertex  4.344611e-001 1.050384e+000 -3.022223e-001
    endloop
  endfacet
  facet normal 0.000000e+000 1.000000e+000 0.000000e+000
    outer loop
      vertex  -4.344611e-001 1.050384e+000 1.243798e-001
      vertex  4.344611e-001 1.050384e+000 -3.022223e-001
      vertex  -4.344611e-001 1.050384e+000 -3.022223e-001
    endloop
  endfacet
  facet normal 8.736596e-001 7.560498e-003 4.864790e-001
    outer loop
      vertex  1.000000e+000 0.000000e+000 2.610767e-001
      vertex  1.000000e+000 1.912000e+000 2.313618e-001
      vertex  5.720000e-001 1.912000e+000 1.000000e+000
    endloop
  endfacet
  facet normal 0.000000e+000 -3.604825e-001 9.327659e-001
    outer loop
      vertex  1.000000e+000 0.000000e+000 2.610767e-001
      vertex  5.720000e-001 1.912000e+000 1.000000e+000
      vertex  -5.720000e-001 1.912000e+000 1.000000e+000
    endloop
  endfacet
  facet normal 0.000000e+000 -3.604825e-001 9.327659e-001
    outer loop
      vertex  -5.720000e-001 1.912000e+000 1.000000e+000
      vertex  -1.000000e+000 0.000000e+000 2.610767e-001
      vertex  1.000000e+000 0.000000e+000 2.610767e-001
    endloop
  endfacet
  facet normal 0.000000e+000 0.000000e+000 -1.000000e+000
    outer loop
      vertex  1.000000e+000 -1.912000e+000 -1.000000e+000
      vertex  -1.000000e+000 -1.912000e+000 -1.000000e+000
      vertex  -1.000000e+000 0.000000e+000 -1.000000e+000
    endloop
  endfacet
  facet normal 0.000000e+000 0.000000e+000 -1.000000e+000
    outer loop
      vertex  -1.000000e+000 0.000000e+000 -1.000000e+000
      vertex  1.000000e+000 0.000000e+000 -1.000000e+000
      vertex  1.000000e+000 -1.912000e+000 -1.000000e+000
    endloop
  endfacet
  facet normal -1.000000e+000 0.000000e+000 0.000000e+000
    outer loop
      vertex  -1.000000e+000 0.000000e+000 2.610767e-001
      vertex  -1.000000e+000 1.912000e+000 2.313618e-001
      vertex  -1.000000e+000 0.000000e+000 -1.000000e+000
    endloop
  endfacet
  facet normal -1.000000e+000 0.000000e+000 -0.000000e+000
    outer loop
      vertex  -1.000000e+000 1.912000e+000 2.313618e-001
      vertex  -1.000000e+000 1.912000e+000 -1.000000e+000
      vertex  -1.000000e+000 0.000000e+000 -1.000000e+000
    endloop
  endfacet
  facet normal 0.000000e+000 -1.198296e-001 9.927945e-001
    outer loop
      vertex  6.340000e-001 -3.824000e+000 3.029962e-002
      vertex  1.000000e+000 -1.912000e+000 2.610767e-001
      vertex  -6.340000e-001 -3.824000e+000 3.029962e-002
    endloop
  endfacet
  facet normal 0.000000e+000 -1.198296e-001 9.927945e-001
    outer loop
      vertex  1.000000e+000 -1.912000e+000 2.610767e-001
      vertex  -1.000000e+000 -1.912000e+000 2.610767e-001
      vertex  -6.340000e-001 -3.824000e+000 3.029962e-002
    endloop
  endfacet
  facet normal 0.000000e+000 0.000000e+000 -1.000000e+000
    outer loop
      vertex  -1.000000e+000 1.912000e+000 -1.000000e+000
      vertex  -1.000000e+000 2.868000e+000 -1.000000e+000
      vertex  1.000000e+000 1.912000e+000 -1.000000e+000
    endloop
  endfacet
  facet normal 0.000000e+000 0.000000e+000 -1.000000e+000
    outer loop
      vertex  -1.000000e+000 2.868000e+000 -1.000000e+000
      vertex  1.000000e+000 2.868000e+000 -1.000000e+000
      vertex  1.000000e+000 1.912000e+000 -1.000000e+000
    endloop
  endfacet
  facet normal 8.736846e-001 -0.000000e+000 4.864928e-001
    outer loop
      vertex  1.000000e+000 1.912000e+000 2.313618e-001
      vertex  1.000000e+000 2.868000e+000 2.313618e-001
      vertex  5.720000e-001 1.912000e+000 1.000000e+000
    endloop
  endfacet
  facet normal 8.736846e-001 0.000000e+000 4.864928e-001
    outer loop
      vertex  1.000000e+000 2.868000e+000 2.313618e-001
      vertex  5.720000e-001 2.868000e+000 1.000000e+000
      vertex  5.720000e-001 1.912000e+000 1.000000e+000
    endloop
  endfacet
  facet normal -9.821674e-001 -1.880090e-001 0.000000e+000
    outer loop
      vertex  -6.340000e-001 -3.824000e+000 3.029962e-002
      vertex  -1.000000e+000 -1.912000e+000 2.610767e-001
      vertex  -1.000000e+000 -1.912000e+000 -1.000000e+000
    endloop
  endfacet
  facet normal -9.821674e-001 -1.880090e-001 -0.000000e+000
    outer loop
      vertex  -6.340000e-001 -3.824000e+000 3.029962e-002
      vertex  -1.000000e+000 -1.912000e+000 -1.000000e+000
      vertex  -6.340000e-001 -3.824000e+000 -7.692230e-001
    endloop
  endfacet
  facet normal 0.000000e+000 -0.000000e+000 1.000000e+000
    outer loop
      vertex  5.720000e-001 1.912000e+000 1.000000e+000
      vertex  5.720000e-001 2.868000e+000 1.000000e+000
      vertex  -5.720000e-001 1.912000e+000 1.000000e+000
    endloop
  endfacet
  facet normal 0.000000e+000 0.000000e+000 1.000000e+000
    outer loop
      vertex  5.720000e-001 2.868000e+000 1.000000e+000
      vertex  -5.720000e-001 2.868000e+000 1.000000e+000
      vertex  -5.720000e-001 1.912000e+000 1.000000e+000
    endloop
  endfacet
  facet normal 0.000000e+000 -1.198296e-001 -9.927945e-001
    outer loop
      vertex  -6.340000e-001 -3.824000e+000 -7.692230e-001
      vertex  -1.000000e+000 -1.912000e+000 -1.000000e+000
      vertex  1.000000e+000 -1.912000e+000 -1.000000e+000
    endloop
  endfacet
  facet normal 0.000000e+000 -1.198296e-001 -9.927945e-001
    outer loop
      vertex  -6.340000e-001 -3.824000e+000 -7.692230e-001
      vertex  1.000000e+000 -1.912000e+000 -1.000000e+000
      vertex  6.340000e-001 -3.824000e+000 -7.692230e-001
    endloop
  endfacet
  facet normal 9.821674e-001 -1.880090e-001 0.000000e+000
    outer loop
      vertex  6.340000e-001 -3.824000e+000 -7.692230e-001
      vertex  1.000000e+000 -1.912000e+000 -1.000000e+000
      vertex  6.340000e-001 -3.824000e+000 3.029962e-002
    endloop
  endfacet
  facet normal 9.821674e-001 -1.880090e-001 0.000000e+000
    outer loop
      vertex  1.000000e+000 -1.912000e+000 -1.000000e+000
      vertex  1.000000e+000 -1.912000e+000 2.610767e-001
      vertex  6.340000e-001 -3.824000e+000 3.029962e-002
    endloop
  endfacet
  facet normal -1.000000e+000 0.000000e+000 0.000000e+000
    outer loop
      vertex  -1.000000e+000 1.912000e+000 2.313618e-001
      vertex  -1.000000e+000 2.868000e+000 2.313618e-001
      vertex  -1.000000e+000 1.912000e+000 -1.000000e+000
    endloop
  endfacet
  facet normal -1.000000e+000 0.000000e+000 -0.000000e+000
    outer loop
      vertex  -1.000000e+000 2.868000e+000 2.313618e-001
      vertex  -1.000000e+000 2.868000e+000 -1.000000e+000
      vertex  -1.000000e+000 1.912000e+000 -1.000000e+000
    endloop
  endfacet
  facet normal 0.000000e+000 4.896216e-001 -8.719350e-001
    outer loop
      vertex  -6.420000e-001 3.824000e+000 -4.631730e-001
      vertex  6.420000e-001 3.824000e+000 -4.631730e-001
      vertex  1.000000e+000 2.868000e+000 -1.000000e+000
    endloop
  endfacet
  facet normal 0.000000e+000 4.896216e-001 -8.719350e-001
    outer loop
      vertex  1.000000e+000 2.868000e+000 -1.000000e+000
      vertex  -1.000000e+000 2.868000e+000 -1.000000e+000
      vertex  -6.420000e-001 3.824000e+000 -4.631730e-001
    endloop
  endfacet
  facet normal 9.364901e-001 3.506940e-001 -0.000000e+000
    outer loop
      vertex  6.420000e-001 3.824000e+000 -4.631730e-001
      vertex  6.420000e-001 3.824000e+000 2.853305e-001
      vertex  1.000000e+000 2.868000e+000 2.313618e-001
    endloop
  endfacet
  facet normal 9.364901e-001 3.506940e-001 0.000000e+000
    outer loop
      vertex  6.420000e-001 3.824000e+000 -4.631730e-001
      vertex  1.000000e+000 2.868000e+000 2.313618e-001
      vertex  1.000000e+000 2.868000e+000 -1.000000e+000
    endloop
  endfacet
  facet normal -0.000000e+000 5.987497e-001 8.009362e-001
    outer loop
      vertex  -5.720000e-001 2.868000e+000 1.000000e+000
      vertex  5.720000e-001 2.868000e+000 1.000000e+000
      vertex  6.420000e-001 3.824000e+000 2.853305e-001
    endloop
  endfacet
  facet normal 0.000000e+000 5.987497e-001 8.009362e-001
    outer loop
      vertex  6.420000e-001 3.824000e+000 2.853305e-001
      vertex  -6.420000e-001 3.824000e+000 2.853305e-001
      vertex  -5.720000e-001 2.868000e+000 1.000000e+000
    endloop
  endfacet
  facet normal -8.369046e-001 2.870939e-001 4.660127e-001
    outer loop
      vertex  -6.420000e-001 3.824000e+000 2.853305e-001
      vertex  -1.000000e+000 2.868000e+000 2.313618e-001
      vertex  -5.720000e-001 2.868000e+000 1.000000e+000
    endloop
  endfacet
  facet normal 1.000000e+000 0.000000e+000 -0.000000e+000
    outer loop
      vertex  1.000000e+000 2.868000e+000 -1.000000e+000
      vertex  1.000000e+000 2.868000e+000 2.313618e-001
      vertex  1.000000e+000 1.912000e+000 2.313618e-001
    endloop
  endfacet
  facet normal 1.000000e+000 0.000000e+000 0.000000e+000
    outer loop
      vertex  1.000000e+000 2.868000e+000 -1.000000e+000
      vertex  1.000000e+000 1.912000e+000 2.313618e-001
      vertex  1.000000e+000 1.912000e+000 -1.000000e+000
    endloop
  endfacet
  facet normal -8.736846e-001 0.000000e+000 4.864928e-001
    outer loop
      vertex  -5.720000e-001 2.868000e+000 1.000000e+000
      vertex  -1.000000e+000 2.868000e+000 2.313618e-001
      vertex  -1.000000e+000 1.912000e+000 2.313618e-001
    endloop
  endfacet
  facet normal -8.736846e-001 0.000000e+000 4.864928e-001
    outer loop
      vertex  -5.720000e-001 2.868000e+000 1.000000e+000
      vertex  -1.000000e+000 1.912000e+000 2.313618e-001
      vertex  -5.720000e-001 1.912000e+000 1.000000e+000
    endloop
  endfacet
  facet normal -8.736597e-001 7.560508e-003 4.864790e-001
    outer loop
      vertex  -5.720000e-001 1.912000e+000 1.000000e+000
      vertex  -1.000000e+000 1.912000e+000 2.313618e-001
      vertex  -1.000000e+000 0.000000e+000 2.610767e-001
    endloop
  endfacet
  facet normal -9.364901e-001 3.506940e-001 0.000000e+000
    outer loop
      vertex  -1.000000e+000 2.868000e+000 -1.000000e+000
      vertex  -1.000000e+000 2.868000e+000 2.313618e-001
      vertex  -6.420000e-001 3.824000e+000 -4.631730e-001
    endloop
  endfacet
  facet normal -9.364901e-001 3.506941e-001 0.000000e+000
    outer loop
      vertex  -1.000000e+000 2.868000e+000 2.313618e-001
      vertex  -6.420000e-001 3.824000e+000 2.853305e-001
      vertex  -6.420000e-001 3.824000e+000 -4.631730e-001
    endloop
  endfacet
  facet normal 1.000000e+000 0.000000e+000 0.000000e+000
    outer loop
      vertex  1.000000e+000 0.000000e+000 -1.000000e+000
      vertex  1.000000e+000 1.912000e+000 -1.000000e+000
      vertex  1.000000e+000 1.912000e+000 2.313618e-001
    endloop
  endfacet
  facet normal 1.000000e+000 0.000000e+000 0.000000e+000
    outer loop
      vertex  1.000000e+000 0.000000e+000 -1.000000e+000
      vertex  1.000000e+000 1.912000e+000 2.313618e-001
      vertex  1.000000e+000 0.000000e+000 2.610767e-001
    endloop
  endfacet
  facet normal 8.369046e-001 2.870939e-001 4.660127e-001
    outer loop
      vertex  5.720000e-001 2.868000e+000 1.000000e+000
      vertex  1.000000e+000 2.868000e+000 2.313618e-001
      vertex  6.420000e-001 3.824000e+000 2.853305e-001
    endloop
  endfacet
  facet normal -1.000000e+000 0.000000e+000 -0.000000e+000
    outer loop
      vertex  -1.000000e+000 0.000000e+000 2.610767e-001
      vertex  -1.000000e+000 0.000000e+000 -1.000000e+000
      vertex  -1.000000e+000 -1.912000e+000 -1.000000e+000
    endloop
  endfacet
  facet normal -1.000000e+000 -0.000000e+000 0.000000e+000
    outer loop
      vertex  -1.000000e+000 0.000000e+000 2.610767e-001
      vertex  -1.000000e+000 -1.912000e+000 -1.000000e+000
      vertex  -1.000000e+000 -1.912000e+000 2.610767e-001
    endloop
  endfacet
  facet normal 1.000000e+000 0.000000e+000 0.000000e+000
    outer loop
      vertex  1.000000e+000 -1.912000e+000 2.610767e-001
      vertex  1.000000e+000 -1.912000e+000 -1.000000e+000
      vertex  1.000000e+000 0.000000e+000 -1.000000e+000
    endloop
  endfacet
  facet normal 1.000000e+000 0.000000e+000 -0.000000e+000
    outer loop
      vertex  1.000000e+000 0.000000e+000 -1.000000e+000
      vertex  1.000000e+000 0.000000e+000 2.610767e-001
      vertex  1.000000e+000 -1.912000e+000 2.610767e-001
    endloop
  endfacet
  facet normal 0.000000e+000 -1.000000e+000 0.000000e+000
    outer loop
      vertex  -2.968577e-001 -9.869269e-001 -5.331265e-001
      vertex  2.968577e-001 -9.869269e-001 -5.331265e-001
      vertex  2.968577e-001 -9.869269e-001 -2.057968e-001
    endloop
  endfacet
  facet normal -0.000000e+000 -1.000000e+000 0.000000e+000
    outer loop
      vertex  2.968577e-001 -9.869269e-001 -2.057968e-001
      vertex  -2.968577e-001 -9.869269e-001 -2.057968e-001
      vertex  -2.968577e-001 -9.869269e-001 -5.331265e-001
    endloop
  endfacet
  facet normal 0.000000e+000 -1.000000e+000 0.000000e+000
    outer loop
      vertex  -6.340000e-001 -3.824000e+000 -7.692230e-001
      vertex  -4.228742e-001 -3.824000e+000 -6.026025e-001
      vertex  -4.228742e-001 -3.824000e+000 -1.363209e-001
    endloop
  endfacet
  facet normal -0.000000e+000 -1.000000e+000 0.000000e+000
    outer loop
      vertex  -4.228742e-001 -3.824000e+000 -1.363209e-001
      vertex  -6.340000e-001 -3.824000e+000 3.029962e-002
      vertex  -6.340000e-001 -3.824000e+000 -7.692230e-001
    endloop
  endfacet
  facet normal 0.000000e+000 -1.000000e+000 0.000000e+000
    outer loop
      vertex  6.340000e-001 -3.824000e+000 -7.692230e-001
      vertex  4.228742e-001 -3.824000e+000 -6.026025e-001
      vertex  -6.340000e-001 -3.824000e+000 -7.692230e-001
    endloop
  endfacet
  facet normal -0.000000e+000 -1.000000e+000 0.000000e+000
    outer loop
      vertex  4.228742e-001 -3.824000e+000 -6.026025e-001
      vertex  -4.228742e-001 -3.824000e+000 -6.026025e-001
      vertex  -6.340000e-001 -3.824000e+000 -7.692230e-001
    endloop
  endfacet
  facet normal 0.000000e+000 -1.000000e+000 0.000000e+000
    outer loop
      vertex  4.228742e-001 -3.824000e+000 -1.363209e-001
      vertex  4.228742e-001 -3.824000e+000 -6.026025e-001
      vertex  6.340000e-001 -3.824000e+000 -7.692230e-001
    endloop
  endfacet
  facet normal 0.000000e+000 -1.000000e+000 0.000000e+000
    outer loop
      vertex  6.340000e-001 -3.824000e+000 -7.692230e-001
      vertex  6.340000e-001 -3.824000e+000 3.029962e-002
      vertex  4.228742e-001 -3.824000e+000 -1.363209e-001
    endloop
  endfacet
  facet normal 0.000000e+000 -1.000000e+000 0.000000e+000
    outer loop
      vertex  -4.228742e-001 -3.824000e+000 -1.363209e-001
      vertex  4.228742e-001 -3.824000e+000 -1.363209e-001
      vertex  6.340000e-001 -3.824000e+000 3.029962e-002
    endloop
  endfacet
  facet normal -0.000000e+000 -1.000000e+000 0.000000e+000
    outer loop
      vertex  6.340000e-001 -3.824000e+000 3.029962e-002
      vertex  -6.340000e-001 -3.824000e+000 3.029962e-002
      vertex  -4.228742e-001 -3.824000e+000 -1.363209e-001
    endloop
  endfacet
  facet normal 9.990150e-001 -4.437403e-002 0.000000e+000
    outer loop
      vertex  -4.228742e-001 -3.824000e+000 -6.026025e-001
      vertex  -2.968577e-001 -9.869269e-001 -5.331265e-001
      vertex  -2.968577e-001 -9.869269e-001 -2.057968e-001
    endloop
  endfacet
  facet normal 9.990150e-001 -4.437404e-002 0.000000e+000
    outer loop
      vertex  -2.968577e-001 -9.869269e-001 -2.057968e-001
      vertex  -4.228742e-001 -3.824000e+000 -1.363209e-001
      vertex  -4.228742e-001 -3.824000e+000 -6.026025e-001
    endloop
  endfacet
  facet normal 0.000000e+000 -2.448126e-002 9.997002e-001
    outer loop
      vertex  4.228742e-001 -3.824000e+000 -6.026025e-001
      vertex  2.968577e-001 -9.869269e-001 -5.331265e-001
      vertex  -2.968577e-001 -9.869269e-001 -5.331265e-001
    endloop
  endfacet
  facet normal 0.000000e+000 -2.448126e-002 9.997002e-001
    outer loop
      vertex  -2.968577e-001 -9.869269e-001 -5.331265e-001
      vertex  -4.228742e-001 -3.824000e+000 -6.026025e-001
      vertex  4.228742e-001 -3.824000e+000 -6.026025e-001
    endloop
  endfacet
  facet normal -9.990150e-001 -4.437403e-002 -0.000000e+000
    outer loop
      vertex  2.968577e-001 -9.869269e-001 -2.057968e-001
      vertex  2.968577e-001 -9.869269e-001 -5.331265e-001
      vertex  4.228742e-001 -3.824000e+000 -6.026025e-001
    endloop
  endfacet
  facet normal -9.990150e-001 -4.437403e-002 0.000000e+000
    outer loop
      vertex  4.228742e-001 -3.824000e+000 -6.026025e-001
      vertex  4.228742e-001 -3.824000e+000 -1.363209e-001
      vertex  2.968577e-001 -9.869269e-001 -2.057968e-001
    endloop
  endfacet
  facet normal 0.000000e+000 -2.448126e-002 -9.997002e-001
    outer loop
      vertex  -2.968577e-001 -9.869269e-001 -2.057968e-001
      vertex  2.968577e-001 -9.869269e-001 -2.057968e-001
      vertex  4.228742e-001 -3.824000e+000 -1.363209e-001
    endloop
  endfacet
  facet normal -0.000000e+000 -2.448126e-002 -9.997002e-001
    outer loop
      vertex  4.228742e-001 -3.824000e+000 -1.363209e-001
      vertex  -4.228742e-001 -3.824000e+000 -1.363209e-001
      vertex  -2.968577e-001 -9.869269e-001 -2.057968e-001
    endloop
  endfacet
  facet normal 0.000000e+000 1.000000e+000 0.000000e+000
    outer loop
      vertex  -5.259820e-001 3.824000e+000 1.693124e-001
      vertex  -5.259820e-001 3.824000e+000 -3.471550e-001
      vertex  -6.420000e-001 3.824000e+000 -4.631730e-001
    endloop
  endfacet
  facet normal 0.000000e+000 1.000000e+000 0.000000e+000
    outer loop
      vertex  -6.420000e-001 3.824000e+000 -4.631730e-001
      vertex  -6.420000e-001 3.824000e+000 2.853305e-001
      vertex  -5.259820e-001 3.824000e+000 1.693124e-001
    endloop
  endfacet
  facet normal 0.000000e+000 1.000000e+000 0.000000e+000
    outer loop
      vertex  5.259820e-001 3.824000e+000 1.693124e-001
      vertex  -5.259820e-001 3.824000e+000 1.693124e-001
      vertex  -6.420000e-001 3.824000e+000 2.853305e-001
    endloop
  endfacet
  facet normal -0.000000e+000 1.000000e+000 0.000000e+000
    outer loop
      vertex  -6.420000e-001 3.824000e+000 2.853305e-001
      vertex  6.420000e-001 3.824000e+000 2.853305e-001
      vertex  5.259820e-001 3.824000e+000 1.693124e-001
    endloop
  endfacet
  facet normal 0.000000e+000 1.000000e+000 0.000000e+000
    outer loop
      vertex  6.420000e-001 3.824000e+000 -4.631730e-001
      vertex  5.259820e-001 3.824000e+000 -3.471550e-001
      vertex  5.259820e-001 3.824000e+000 1.693124e-001
    endloop
  endfacet
  facet normal -0.000000e+000 1.000000e+000 0.000000e+000
    outer loop
      vertex  5.259820e-001 3.824000e+000 1.693124e-001
      vertex  6.420000e-001 3.824000e+000 2.853305e-001
      vertex  6.420000e-001 3.824000e+000 -4.631730e-001
    endloop
  endfacet
  facet normal 0.000000e+000 1.000000e+000 0.000000e+000
    outer loop
      vertex  -6.420000e-001 3.824000e+000 -4.631730e-001
      vertex  -5.259820e-001 3.824000e+000 -3.471550e-001
      vertex  6.420000e-001 3.824000e+000 -4.631730e-001
    endloop
  endfacet
  facet normal -0.000000e+000 1.000000e+000 0.000000e+000
    outer loop
      vertex  -5.259820e-001 3.824000e+000 -3.471550e-001
      vertex  5.259820e-001 3.824000e+000 -3.471550e-001
      vertex  6.420000e-001 3.824000e+000 -4.631730e-001
    endloop
  endfacet
  facet normal 9.994560e-001 3.297901e-002 0.000000e+000
    outer loop
      vertex  -4.344611e-001 1.050384e+000 1.243798e-001
      vertex  -4.344611e-001 1.050384e+000 -3.022223e-001
      vertex  -5.259820e-001 3.824000e+000 -3.471550e-001
    endloop
  endfacet
  facet normal 9.994560e-001 3.297901e-002 -0.000000e+000
    outer loop
      vertex  -5.259820e-001 3.824000e+000 -3.471550e-001
      vertex  -5.259820e-001 3.824000e+000 1.693124e-001
      vertex  -4.344611e-001 1.050384e+000 1.243798e-001
    endloop
  endfacet
  facet normal 0.000000e+000 1.619791e-002 -9.998689e-001
    outer loop
      vertex  5.259820e-001 3.824000e+000 1.693124e-001
      vertex  4.344611e-001 1.050384e+000 1.243798e-001
      vertex  -4.344611e-001 1.050384e+000 1.243798e-001
    endloop
  endfacet
  facet normal 0.000000e+000 1.619791e-002 -9.998688e-001
    outer loop
      vertex  -4.344611e-001 1.050384e+000 1.243798e-001
      vertex  -5.259820e-001 3.824000e+000 1.693124e-001
      vertex  5.259820e-001 3.824000e+000 1.693124e-001
    endloop
  endfacet
  facet normal -9.994560e-001 3.297901e-002 0.000000e+000
    outer loop
      vertex  5.259820e-001 3.824000e+000 -3.471550e-001
      vertex  4.344611e-001 1.050384e+000 -3.022223e-001
      vertex  4.344611e-001 1.050384e+000 1.243798e-001
    endloop
  endfacet
  facet normal -9.994560e-001 3.297901e-002 0.000000e+000
    outer loop
      vertex  4.344611e-001 1.050384e+000 1.243798e-001
      vertex  5.259820e-001 3.824000e+000 1.693124e-001
      vertex  5.259820e-001 3.824000e+000 -3.471550e-001
    endloop
  endfacet
  facet normal -0.000000e+000 1.619791e-002 9.998688e-001
    outer loop
      vertex  -4.344611e-001 1.050384e+000 -3.022223e-001
      vertex  4.344611e-001 1.050384e+000 -3.022223e-001
      vertex  5.259820e-001 3.824000e+000 -3.471550e-001
    endloop
  endfacet
  facet normal 0.000000e+000 1.619791e-002 9.998688e-001
    outer loop
      vertex  5.259820e-001 3.824000e+000 -3.471550e-001
      vertex  -5.259820e-001 3.824000e+000 -3.471550e-001
      vertex  -4.344611e-001 1.050384e+000 -3.022223e-001
    endloop
  endfacet
endsolid vcg
