solid STL generated by MeshLab
  facet normal 0.000000e+000 0.000000e+000 1.000000e+000
    outer loop
      vertex  0.000000e+000 -1.912000e+000 2.610767e-001
      vertex  1.000000e+000 -9.560000e-001 2.610767e-001
      vertex  0.000000e+000 0.000000e+000 2.610767e-001
    endloop
  endfacet
  facet normal 0.000000e+000 -0.000000e+000 1.000000e+000
    outer loop
      vertex  0.000000e+000 -1.912000e+000 2.610767e-001
      vertex  0.000000e+000 0.000000e+000 2.610767e-001
      vertex  -1.000000e+000 -9.560000e-001 2.610767e-001
    endloop
  endfacet
  facet normal 0.000000e+000 0.000000e+000 -1.000000e+000
    outer loop
      vertex  0.000000e+000 0.000000e+000 -1.000000e+000
      vertex  -1.000000e+000 9.560000e-001 -1.000000e+000
      vertex  0.000000e+000 1.912000e+000 -1.000000e+000
    endloop
  endfacet
  facet normal 0.000000e+000 0.000000e+000 -1.000000e+000
    outer loop
      vertex  0.000000e+000 0.000000e+000 -1.000000e+000
      vertex  0.000000e+000 1.912000e+000 -1.000000e+000
      vertex  1.000000e+000 9.560000e-001 -1.000000e+000
    endloop
  endfacet
  facet normal 0.000000e+000 1.000000e+000 -0.000000e+000
    outer loop
      vertex  0.000000e+000 3.824000e+000 -4.631730e-001
      vertex  -6.420000e-001 3.824000e+000 -8.892129e-002
      vertex  0.000000e+000 3.824000e+000 2.853305e-001
    endloop
  endfacet
  facet normal 0.000000e+000 1.000000e+000 0.000000e+000
    outer loop
      vertex  0.000000e+000 3.824000e+000 -4.631730e-001
      vertex  0.000000e+000 3.824000e+000 2.853305e-001
      vertex  6.420000e-001 3.824000e+000 -8.892129e-002
    endloop
  endfacet
  facet normal 8.736597e-001 7.560509e-003 4.864790e-001
    outer loop
      vertex  7.860000e-001 9.560000e-001 6.305383e-001
      vertex  1.000000e+000 9.560000e-001 2.462192e-001
      vertex  7.860000e-001 1.912000e+000 6.156809e-001
    endloop
  endfacet
  facet normal 0.000000e+000 -3.604825e-001 9.327659e-001
    outer loop
      vertex  -7.860000e-001 9.560000e-001 6.305383e-001
      vertex  0.000000e+000 0.000000e+000 2.610767e-001
      vertex  7.860000e-001 9.560000e-001 6.305383e-001
    endloop
  endfacet
  facet normal 0.000000e+000 -3.604825e-001 9.327660e-001
    outer loop
      vertex  -7.860000e-001 9.560000e-001 6.305383e-001
      vertex  7.860000e-001 9.560000e-001 6.305383e-001
      vertex  0.000000e+000 1.912000e+000 1.000000e+000
    endloop
  endfacet
  facet normal 0.000000e+000 0.000000e+000 -1.000000e+000
    outer loop
      vertex  0.000000e+000 0.000000e+000 -1.000000e+000
      vertex  1.000000e+000 -9.560000e-001 -1.000000e+000
      vertex  0.000000e+000 -1.912000e+000 -1.000000e+000
    endloop
  endfacet
  facet normal 0.000000e+000 -0.000000e+000 -1.000000e+000
    outer loop
      vertex  0.000000e+000 0.000000e+000 -1.000000e+000
      vertex  0.000000e+000 -1.912000e+000 -1.000000e+000
      vertex  -1.000000e+000 -9.560000e-001 -1.000000e+000
    endloop
  endfacet
  facet normal -1.000000e+000 0.000000e+000 0.000000e+000
    outer loop
      vertex  -1.000000e+000 0.000000e+000 -3.694617e-001
      vertex  -1.000000e+000 9.560000e-001 2.462192e-001
      vertex  -1.000000e+000 9.560000e-001 -1.000000e+000
    endloop
  endfacet
  facet normal -1.000000e+000 0.000000e+000 0.000000e+000
    outer loop
      vertex  -1.000000e+000 9.560000e-001 2.462192e-001
      vertex  -1.000000e+000 1.912000e+000 -3.843191e-001
      vertex  -1.000000e+000 9.560000e-001 -1.000000e+000
    endloop
  endfacet
  facet normal 0.000000e+000 -1.198296e-001 9.927945e-001
    outer loop
      vertex  -8.170000e-001 -2.868000e+000 1.456881e-001
      vertex  0.000000e+000 -3.824000e+000 3.029962e-002
      vertex  8.170000e-001 -2.868000e+000 1.456881e-001
    endloop
  endfacet
  facet normal 0.000000e+000 -1.198296e-001 9.927945e-001
    outer loop
      vertex  -8.170000e-001 -2.868000e+000 1.456881e-001
      vertex  8.170000e-001 -2.868000e+000 1.456881e-001
      vertex  0.000000e+000 -1.912000e+000 2.610767e-001
    endloop
  endfacet
  facet normal 0.000000e+000 0.000000e+000 -1.000000e+000
    outer loop
      vertex  0.000000e+000 1.912000e+000 -1.000000e+000
      vertex  -1.000000e+000 2.390000e+000 -1.000000e+000
      vertex  0.000000e+000 2.868000e+000 -1.000000e+000
    endloop
  endfacet
  facet normal 0.000000e+000 0.000000e+000 -1.000000e+000
    outer loop
      vertex  0.000000e+000 1.912000e+000 -1.000000e+000
      vertex  0.000000e+000 2.868000e+000 -1.000000e+000
      vertex  1.000000e+000 2.390000e+000 -1.000000e+000
    endloop
  endfacet
  facet normal 8.736846e-001 0.000000e+000 4.864928e-001
    outer loop
      vertex  7.860000e-001 1.912000e+000 6.156809e-001
      vertex  1.000000e+000 2.390000e+000 2.313618e-001
      vertex  5.720000e-001 2.390000e+000 1.000000e+000
    endloop
  endfacet
  facet normal 8.736845e-001 0.000000e+000 4.864928e-001
    outer loop
      vertex  1.000000e+000 2.390000e+000 2.313618e-001
      vertex  7.860000e-001 2.868000e+000 6.156809e-001
      vertex  5.720000e-001 2.390000e+000 1.000000e+000
    endloop
  endfacet
  facet normal -9.821674e-001 -1.880090e-001 0.000000e+000
    outer loop
      vertex  -8.170000e-001 -2.868000e+000 -8.846115e-001
      vertex  -6.340000e-001 -3.824000e+000 -3.694617e-001
      vertex  -8.170000e-001 -2.868000e+000 1.456881e-001
    endloop
  endfacet
  facet normal -9.821674e-001 -1.880090e-001 0.000000e+000
    outer loop
      vertex  -8.170000e-001 -2.868000e+000 -8.846115e-001
      vertex  -8.170000e-001 -2.868000e+000 1.456881e-001
      vertex  -1.000000e+000 -1.912000e+000 -3.694617e-001
    endloop
  endfacet
  facet normal 0.000000e+000 0.000000e+000 1.000000e+000
    outer loop
      vertex  0.000000e+000 1.912000e+000 1.000000e+000
      vertex  5.720000e-001 2.390000e+000 1.000000e+000
      vertex  0.000000e+000 2.868000e+000 1.000000e+000
    endloop
  endfacet
  facet normal 0.000000e+000 -0.000000e+000 1.000000e+000
    outer loop
      vertex  0.000000e+000 1.912000e+000 1.000000e+000
      vertex  0.000000e+000 2.868000e+000 1.000000e+000
      vertex  -5.720000e-001 2.390000e+000 1.000000e+000
    endloop
  endfacet
  facet normal -0.000000e+000 -1.198296e-001 -9.927945e-001
    outer loop
      vertex  8.170000e-001 -2.868000e+000 -8.846115e-001
      vertex  0.000000e+000 -3.824000e+000 -7.692230e-001
      vertex  -8.170000e-001 -2.868000e+000 -8.846115e-001
    endloop
  endfacet
  facet normal -0.000000e+000 -1.198296e-001 -9.927945e-001
    outer loop
      vertex  8.170000e-001 -2.868000e+000 -8.846115e-001
      vertex  -8.170000e-001 -2.868000e+000 -8.846115e-001
      vertex  0.000000e+000 -1.912000e+000 -1.000000e+000
    endloop
  endfacet
  facet normal 9.821674e-001 -1.880090e-001 0.000000e+000
    outer loop
      vertex  8.170000e-001 -2.868000e+000 1.456881e-001
      vertex  6.340000e-001 -3.824000e+000 -3.694617e-001
      vertex  8.170000e-001 -2.868000e+000 -8.846115e-001
    endloop
  endfacet
  facet normal 9.821674e-001 -1.880090e-001 0.000000e+000
    outer loop
      vertex  8.170000e-001 -2.868000e+000 1.456881e-001
      vertex  8.170000e-001 -2.868000e+000 -8.846115e-001
      vertex  1.000000e+000 -1.912000e+000 -3.694617e-001
    endloop
  endfacet
  facet normal -1.000000e+000 0.000000e+000 0.000000e+000
    outer loop
      vertex  -1.000000e+000 1.912000e+000 -3.843191e-001
      vertex  -1.000000e+000 2.390000e+000 2.313618e-001
      vertex  -1.000000e+000 2.868000e+000 -3.843191e-001
    endloop
  endfacet
  facet normal -1.000000e+000 0.000000e+000 0.000000e+000
    outer loop
      vertex  -1.000000e+000 1.912000e+000 -3.843191e-001
      vertex  -1.000000e+000 2.868000e+000 -3.843191e-001
      vertex  -1.000000e+000 2.390000e+000 -1.000000e+000
    endloop
  endfacet
  facet normal 0.000000e+000 4.896216e-001 -8.719350e-001
    outer loop
      vertex  0.000000e+000 3.824000e+000 -4.631730e-001
      vertex  8.210000e-001 3.346000e+000 -7.315865e-001
      vertex  0.000000e+000 2.868000e+000 -1.000000e+000
    endloop
  endfacet
  facet normal 0.000000e+000 4.896216e-001 -8.719350e-001
    outer loop
      vertex  0.000000e+000 2.868000e+000 -1.000000e+000
      vertex  -8.210000e-001 3.346000e+000 -7.315865e-001
      vertex  0.000000e+000 3.824000e+000 -4.631730e-001
    endloop
  endfacet
  facet normal 9.364901e-001 3.506940e-001 -0.000000e+000
    outer loop
      vertex  8.210000e-001 3.346000e+000 -7.315865e-001
      vertex  6.420000e-001 3.824000e+000 -8.892129e-002
      vertex  8.210000e-001 3.346000e+000 2.583461e-001
    endloop
  endfacet
  facet normal 9.364900e-001 3.506941e-001 -0.000000e+000
    outer loop
      vertex  8.210000e-001 3.346000e+000 -7.315865e-001
      vertex  8.210000e-001 3.346000e+000 2.583461e-001
      vertex  1.000000e+000 2.868000e+000 -3.843191e-001
    endloop
  endfacet
  facet normal 4.113405e-008 5.987498e-001 8.009362e-001
    outer loop
      vertex  0.000000e+000 2.868000e+000 1.000000e+000
      vertex  6.070000e-001 3.346000e+000 6.426652e-001
      vertex  0.000000e+000 3.824000e+000 2.853305e-001
    endloop
  endfacet
  facet normal -4.113405e-008 5.987498e-001 8.009362e-001
    outer loop
      vertex  0.000000e+000 3.824000e+000 2.853305e-001
      vertex  -6.070000e-001 3.346000e+000 6.426652e-001
      vertex  0.000000e+000 2.868000e+000 1.000000e+000
    endloop
  endfacet
  facet normal -8.369046e-001 2.870940e-001 4.660127e-001
    outer loop
      vertex  -6.070000e-001 3.346000e+000 6.426652e-001
      vertex  -8.210000e-001 3.346000e+000 2.583461e-001
      vertex  -7.860000e-001 2.868000e+000 6.156809e-001
    endloop
  endfacet
  facet normal -6.337298e-001 -7.735545e-001 0.000000e+000
    outer loop
      vertex  -6.340000e-001 -3.824000e+000 -3.694617e-001
      vertex  -3.170000e-001 -4.083700e+000 -5.693423e-001
      vertex  -3.170000e-001 -4.083700e+000 -1.695810e-001
    endloop
  endfacet
  facet normal 0.000000e+000 -6.099239e-001 -7.924600e-001
    outer loop
      vertex  0.000000e+000 -3.824000e+000 -7.692230e-001
      vertex  3.170000e-001 -4.083700e+000 -5.693423e-001
      vertex  -3.170000e-001 -4.083700e+000 -5.693423e-001
    endloop
  endfacet
  facet normal 6.337298e-001 -7.735545e-001 0.000000e+000
    outer loop
      vertex  6.340000e-001 -3.824000e+000 -3.694617e-001
      vertex  3.170000e-001 -4.083700e+000 -1.695810e-001
      vertex  3.170000e-001 -4.083700e+000 -5.693423e-001
    endloop
  endfacet
  facet normal 0.000000e+000 -6.099239e-001 7.924600e-001
    outer loop
      vertex  0.000000e+000 -3.824000e+000 3.029962e-002
      vertex  -3.170000e-001 -4.083700e+000 -1.695810e-001
      vertex  3.170000e-001 -4.083700e+000 -1.695810e-001
    endloop
  endfacet
  facet normal 1.000000e+000 -0.000000e+000 0.000000e+000
    outer loop
      vertex  1.000000e+000 1.912000e+000 -3.843191e-001
      vertex  1.000000e+000 2.390000e+000 -1.000000e+000
      vertex  1.000000e+000 2.868000e+000 -3.843191e-001
    endloop
  endfacet
  facet normal 1.000000e+000 0.000000e+000 0.000000e+000
    outer loop
      vertex  1.000000e+000 1.912000e+000 -3.843191e-001
      vertex  1.000000e+000 2.868000e+000 -3.843191e-001
      vertex  1.000000e+000 2.390000e+000 2.313618e-001
    endloop
  endfacet
  facet normal -8.736845e-001 0.000000e+000 4.864928e-001
    outer loop
      vertex  -5.720000e-001 2.390000e+000 1.000000e+000
      vertex  -7.860000e-001 2.868000e+000 6.156809e-001
      vertex  -1.000000e+000 2.390000e+000 2.313618e-001
    endloop
  endfacet
  facet normal -8.736846e-001 0.000000e+000 4.864928e-001
    outer loop
      vertex  -5.720000e-001 2.390000e+000 1.000000e+000
      vertex  -1.000000e+000 2.390000e+000 2.313618e-001
      vertex  -7.860000e-001 1.912000e+000 6.156809e-001
    endloop
  endfacet
  facet normal -8.736597e-001 7.560509e-003 4.864790e-001
    outer loop
      vertex  -7.860000e-001 9.560000e-001 6.305383e-001
      vertex  -7.860000e-001 1.912000e+000 6.156809e-001
      vertex  -1.000000e+000 9.560000e-001 2.462192e-001
    endloop
  endfacet
  facet normal -9.364900e-001 3.506941e-001 0.000000e+000
    outer loop
      vertex  -8.210000e-001 3.346000e+000 -7.315865e-001
      vertex  -1.000000e+000 2.868000e+000 -3.843191e-001
      vertex  -8.210000e-001 3.346000e+000 2.583461e-001
    endloop
  endfacet
  facet normal -9.364901e-001 3.506940e-001 0.000000e+000
    outer loop
      vertex  -8.210000e-001 3.346000e+000 -7.315865e-001
      vertex  -8.210000e-001 3.346000e+000 2.583461e-001
      vertex  -6.420000e-001 3.824000e+000 -8.892129e-002
    endloop
  endfacet
  facet normal 1.000000e+000 0.000000e+000 0.000000e+000
    outer loop
      vertex  1.000000e+000 9.560000e-001 -1.000000e+000
      vertex  1.000000e+000 1.912000e+000 -3.843191e-001
      vertex  1.000000e+000 9.560000e-001 2.462192e-001
    endloop
  endfacet
  facet normal 1.000000e+000 0.000000e+000 -0.000000e+000
    outer loop
      vertex  1.000000e+000 9.560000e-001 -1.000000e+000
      vertex  1.000000e+000 9.560000e-001 2.462192e-001
      vertex  1.000000e+000 0.000000e+000 -3.694617e-001
    endloop
  endfacet
  facet normal 8.369046e-001 2.870940e-001 4.660127e-001
    outer loop
      vertex  6.070000e-001 3.346000e+000 6.426652e-001
      vertex  7.860000e-001 2.868000e+000 6.156809e-001
      vertex  8.210000e-001 3.346000e+000 2.583461e-001
    endloop
  endfacet
  facet normal -1.000000e+000 0.000000e+000 0.000000e+000
    outer loop
      vertex  -1.000000e+000 -9.560000e-001 1.072253e-001
      vertex  -1.000000e+000 -1.835074e+000 1.841510e-001
      vertex  -1.000000e+000 -9.560000e-001 2.610767e-001
    endloop
  endfacet
  facet normal -1.000000e+000 0.000000e+000 0.000000e+000
    outer loop
      vertex  -1.000000e+000 -9.560000e-001 2.610767e-001
      vertex  -1.000000e+000 -7.692567e-002 1.841510e-001
      vertex  -1.000000e+000 -9.560000e-001 1.072253e-001
    endloop
  endfacet
  facet normal -1.000000e+000 0.000000e+000 0.000000e+000
    outer loop
      vertex  -1.000000e+000 -1.538513e-001 -3.694617e-001
      vertex  -1.000000e+000 -7.692567e-002 1.841510e-001
      vertex  -1.000000e+000 0.000000e+000 -3.694617e-001
    endloop
  endfacet
  facet normal -1.000000e+000 0.000000e+000 0.000000e+000
    outer loop
      vertex  -1.000000e+000 -1.538513e-001 -3.694617e-001
      vertex  -1.000000e+000 0.000000e+000 -3.694617e-001
      vertex  -1.000000e+000 -7.692567e-002 -9.230743e-001
    endloop
  endfacet
  facet normal -1.000000e+000 0.000000e+000 0.000000e+000
    outer loop
      vertex  -1.000000e+000 -9.560000e-001 -8.461487e-001
      vertex  -1.000000e+000 -7.692567e-002 -9.230743e-001
      vertex  -1.000000e+000 -9.560000e-001 -1.000000e+000
    endloop
  endfacet
  facet normal -1.000000e+000 0.000000e+000 -0.000000e+000
    outer loop
      vertex  -1.000000e+000 -9.560000e-001 -8.461487e-001
      vertex  -1.000000e+000 -9.560000e-001 -1.000000e+000
      vertex  -1.000000e+000 -1.835074e+000 -9.230743e-001
    endloop
  endfacet
  facet normal -1.000000e+000 -0.000000e+000 0.000000e+000
    outer loop
      vertex  -1.000000e+000 -1.758149e+000 -3.694617e-001
      vertex  -1.000000e+000 -1.835074e+000 -9.230743e-001
      vertex  -1.000000e+000 -1.912000e+000 -3.694617e-001
    endloop
  endfacet
  facet normal -1.000000e+000 0.000000e+000 0.000000e+000
    outer loop
      vertex  -1.000000e+000 -1.758149e+000 -3.694617e-001
      vertex  -1.000000e+000 -1.912000e+000 -3.694617e-001
      vertex  -1.000000e+000 -1.835074e+000 1.841510e-001
    endloop
  endfacet
  facet normal 1.000000e+000 0.000000e+000 0.000000e+000
    outer loop
      vertex  1.000000e+000 -9.560000e-001 1.072253e-001
      vertex  1.000000e+000 -7.692567e-002 1.841510e-001
      vertex  1.000000e+000 -9.560000e-001 2.610767e-001
    endloop
  endfacet
  facet normal 1.000000e+000 0.000000e+000 -0.000000e+000
    outer loop
      vertex  1.000000e+000 -9.560000e-001 1.072253e-001
      vertex  1.000000e+000 -9.560000e-001 2.610767e-001
      vertex  1.000000e+000 -1.835074e+000 1.841510e-001
    endloop
  endfacet
  facet normal 1.000000e+000 0.000000e+000 0.000000e+000
    outer loop
      vertex  1.000000e+000 -1.758149e+000 -3.694617e-001
      vertex  1.000000e+000 -1.835074e+000 1.841510e-001
      vertex  1.000000e+000 -1.912000e+000 -3.694617e-001
    endloop
  endfacet
  facet normal 1.000000e+000 0.000000e+000 0.000000e+000
    outer loop
      vertex  1.000000e+000 -1.758149e+000 -3.694617e-001
      vertex  1.000000e+000 -1.912000e+000 -3.694617e-001
      vertex  1.000000e+000 -1.835074e+000 -9.230743e-001
    endloop
  endfacet
  facet normal 1.000000e+000 0.000000e+000 0.000000e+000
    outer loop
      vertex  1.000000e+000 -9.560000e-001 -8.461487e-001
      vertex  1.000000e+000 -1.835074e+000 -9.230743e-001
      vertex  1.000000e+000 -9.560000e-001 -1.000000e+000
    endloop
  endfacet
  facet normal 1.000000e+000 0.000000e+000 0.000000e+000
    outer loop
      vertex  1.000000e+000 -9.560000e-001 -1.000000e+000
      vertex  1.000000e+000 -7.692567e-002 -9.230743e-001
      vertex  1.000000e+000 -9.560000e-001 -8.461487e-001
    endloop
  endfacet
  facet normal 1.000000e+000 -0.000000e+000 0.000000e+000
    outer loop
      vertex  1.000000e+000 -1.538513e-001 -3.694617e-001
      vertex  1.000000e+000 -7.692567e-002 -9.230743e-001
      vertex  1.000000e+000 0.000000e+000 -3.694617e-001
    endloop
  endfacet
  facet normal 1.000000e+000 0.000000e+000 0.000000e+000
    outer loop
      vertex  1.000000e+000 -1.538513e-001 -3.694617e-001
      vertex  1.000000e+000 0.000000e+000 -3.694617e-001
      vertex  1.000000e+000 -7.692567e-002 1.841510e-001
    endloop
  endfacet
  facet normal 0.000000e+000 0.000000e+000 -1.000000e+000
    outer loop
      vertex  0.000000e+000 -1.538513e-001 1.072253e-001
      vertex  1.000000e+000 -9.560000e-001 1.072253e-001
      vertex  0.000000e+000 -1.758149e+000 1.072253e-001
    endloop
  endfacet
  facet normal 0.000000e+000 -0.000000e+000 -1.000000e+000
    outer loop
      vertex  0.000000e+000 -1.538513e-001 1.072253e-001
      vertex  0.000000e+000 -1.758149e+000 1.072253e-001
      vertex  -1.000000e+000 -9.560000e-001 1.072253e-001
    endloop
  endfacet
  facet normal 0.000000e+000 1.000000e+000 0.000000e+000
    outer loop
      vertex  0.000000e+000 -1.758149e+000 1.072253e-001
      vertex  1.000000e+000 -1.758149e+000 -3.694617e-001
      vertex  0.000000e+000 -1.758149e+000 -8.461487e-001
    endloop
  endfacet
  facet normal 0.000000e+000 1.000000e+000 0.000000e+000
    outer loop
      vertex  0.000000e+000 -1.758149e+000 1.072253e-001
      vertex  0.000000e+000 -1.758149e+000 -8.461487e-001
      vertex  -1.000000e+000 -1.758149e+000 -3.694617e-001
    endloop
  endfacet
  facet normal 0.000000e+000 0.000000e+000 1.000000e+000
    outer loop
      vertex  0.000000e+000 -1.758149e+000 -8.461487e-001
      vertex  1.000000e+000 -9.560000e-001 -8.461487e-001
      vertex  0.000000e+000 -1.538513e-001 -8.461487e-001
    endloop
  endfacet
  facet normal 0.000000e+000 -0.000000e+000 1.000000e+000
    outer loop
      vertex  0.000000e+000 -1.758149e+000 -8.461487e-001
      vertex  0.000000e+000 -1.538513e-001 -8.461487e-001
      vertex  -1.000000e+000 -9.560000e-001 -8.461487e-001
    endloop
  endfacet
  facet normal 0.000000e+000 -1.000000e+000 0.000000e+000
    outer loop
      vertex  0.000000e+000 -1.538513e-001 -8.461487e-001
      vertex  1.000000e+000 -1.538513e-001 -3.694617e-001
      vertex  0.000000e+000 -1.538513e-001 1.072253e-001
    endloop
  endfacet
  facet normal 0.000000e+000 -1.000000e+000 0.000000e+000
    outer loop
      vertex  0.000000e+000 -1.538513e-001 -8.461487e-001
      vertex  0.000000e+000 -1.538513e-001 1.072253e-001
      vertex  -1.000000e+000 -1.538513e-001 -3.694617e-001
    endloop
  endfacet
  facet normal 0.000000e+000 -0.000000e+000 1.000000e+000
    outer loop
      vertex  1.000000e+000 -1.912000e+000 2.610767e-001
      vertex  1.000000e+000 -9.560000e-001 2.610767e-001
      vertex  0.000000e+000 -1.912000e+000 2.610767e-001
    endloop
  endfacet
  facet normal 0.000000e+000 0.000000e+000 1.000000e+000
    outer loop
      vertex  0.000000e+000 -1.912000e+000 2.610767e-001
      vertex  -1.000000e+000 -9.560000e-001 2.610767e-001
      vertex  -1.000000e+000 -1.912000e+000 2.610767e-001
    endloop
  endfacet
  facet normal 0.000000e+000 0.000000e+000 1.000000e+000
    outer loop
      vertex  -1.000000e+000 -9.560000e-001 2.610767e-001
      vertex  0.000000e+000 0.000000e+000 2.610767e-001
      vertex  -1.000000e+000 0.000000e+000 2.610767e-001
    endloop
  endfacet
  facet normal 0.000000e+000 0.000000e+000 1.000000e+000
    outer loop
      vertex  1.000000e+000 0.000000e+000 2.610767e-001
      vertex  0.000000e+000 0.000000e+000 2.610767e-001
      vertex  1.000000e+000 -9.560000e-001 2.610767e-001
    endloop
  endfacet
  facet normal 0.000000e+000 0.000000e+000 -1.000000e+000
    outer loop
      vertex  1.000000e+000 0.000000e+000 -1.000000e+000
      vertex  0.000000e+000 0.000000e+000 -1.000000e+000
      vertex  1.000000e+000 9.560000e-001 -1.000000e+000
    endloop
  endfacet
  facet normal 0.000000e+000 0.000000e+000 -1.000000e+000
    outer loop
      vertex  1.000000e+000 9.560000e-001 -1.000000e+000
      vertex  0.000000e+000 1.912000e+000 -1.000000e+000
      vertex  1.000000e+000 1.912000e+000 -1.000000e+000
    endloop
  endfacet
  facet normal 0.000000e+000 0.000000e+000 -1.000000e+000
    outer loop
      vertex  -1.000000e+000 1.912000e+000 -1.000000e+000
      vertex  0.000000e+000 1.912000e+000 -1.000000e+000
      vertex  -1.000000e+000 9.560000e-001 -1.000000e+000
    endloop
  endfacet
  facet normal 0.000000e+000 0.000000e+000 -1.000000e+000
    outer loop
      vertex  -1.000000e+000 0.000000e+000 -1.000000e+000
      vertex  -1.000000e+000 9.560000e-001 -1.000000e+000
      vertex  0.000000e+000 0.000000e+000 -1.000000e+000
    endloop
  endfacet
  facet normal 0.000000e+000 1.000000e+000 0.000000e+000
    outer loop
      vertex  -6.420000e-001 3.824000e+000 -8.892129e-002
      vertex  0.000000e+000 3.824000e+000 -4.631730e-001
      vertex  -6.420000e-001 3.824000e+000 -4.631730e-001
    endloop
  endfacet
  facet normal 0.000000e+000 1.000000e+000 -0.000000e+000
    outer loop
      vertex  6.420000e-001 3.824000e+000 -4.631730e-001
      vertex  0.000000e+000 3.824000e+000 -4.631730e-001
      vertex  6.420000e-001 3.824000e+000 -8.892129e-002
    endloop
  endfacet
  facet normal 0.000000e+000 1.000000e+000 -0.000000e+000
    outer loop
      vertex  6.420000e-001 3.824000e+000 -8.892129e-002
      vertex  0.000000e+000 3.824000e+000 2.853305e-001
      vertex  6.420000e-001 3.824000e+000 2.853305e-001
    endloop
  endfacet
  facet normal 0.000000e+000 1.000000e+000 0.000000e+000
    outer loop
      vertex  0.000000e+000 3.824000e+000 2.853305e-001
      vertex  -6.420000e-001 3.824000e+000 -8.892129e-002
      vertex  -6.420000e-001 3.824000e+000 2.853305e-001
    endloop
  endfacet
  facet normal 8.736596e-001 7.560509e-003 4.864790e-001
    outer loop
      vertex  7.860000e-001 9.560000e-001 6.305383e-001
      vertex  7.860000e-001 1.912000e+000 6.156809e-001
      vertex  5.720000e-001 1.912000e+000 1.000000e+000
    endloop
  endfacet
  facet normal 8.736597e-001 7.560494e-003 4.864790e-001
    outer loop
      vertex  1.000000e+000 1.912000e+000 2.313618e-001
      vertex  7.860000e-001 1.912000e+000 6.156809e-001
      vertex  1.000000e+000 9.560000e-001 2.462192e-001
    endloop
  endfacet
  facet normal 8.736597e-001 7.560502e-003 4.864790e-001
    outer loop
      vertex  1.000000e+000 9.560000e-001 2.462192e-001
      vertex  7.860000e-001 9.560000e-001 6.305383e-001
      vertex  1.000000e+000 0.000000e+000 2.610767e-001
    endloop
  endfacet
  facet normal 0.000000e+000 -3.604825e-001 9.327659e-001
    outer loop
      vertex  0.000000e+000 0.000000e+000 2.610767e-001
      vertex  -7.860000e-001 9.560000e-001 6.305383e-001
      vertex  -1.000000e+000 0.000000e+000 2.610767e-001
    endloop
  endfacet
  facet normal 0.000000e+000 -3.604825e-001 9.327659e-001
    outer loop
      vertex  -7.860000e-001 9.560000e-001 6.305383e-001
      vertex  0.000000e+000 1.912000e+000 1.000000e+000
      vertex  -5.720000e-001 1.912000e+000 1.000000e+000
    endloop
  endfacet
  facet normal 0.000000e+000 -3.604825e-001 9.327659e-001
    outer loop
      vertex  5.720000e-001 1.912000e+000 1.000000e+000
      vertex  0.000000e+000 1.912000e+000 1.000000e+000
      vertex  7.860000e-001 9.560000e-001 6.305383e-001
    endloop
  endfacet
  facet normal 0.000000e+000 -3.604825e-001 9.327659e-001
    outer loop
      vertex  7.860000e-001 9.560000e-001 6.305383e-001
      vertex  0.000000e+000 0.000000e+000 2.610767e-001
      vertex  1.000000e+000 0.000000e+000 2.610767e-001
    endloop
  endfacet
  facet normal 0.000000e+000 0.000000e+000 -1.000000e+000
    outer loop
      vertex  1.000000e+000 -9.560000e-001 -1.000000e+000
      vertex  0.000000e+000 0.000000e+000 -1.000000e+000
      vertex  1.000000e+000 0.000000e+000 -1.000000e+000
    endloop
  endfacet
  facet normal 0.000000e+000 0.000000e+000 -1.000000e+000
    outer loop
      vertex  -1.000000e+000 0.000000e+000 -1.000000e+000
      vertex  0.000000e+000 0.000000e+000 -1.000000e+000
      vertex  -1.000000e+000 -9.560000e-001 -1.000000e+000
    endloop
  endfacet
  facet normal 0.000000e+000 0.000000e+000 -1.000000e+000
    outer loop
      vertex  -1.000000e+000 -1.912000e+000 -1.000000e+000
      vertex  -1.000000e+000 -9.560000e-001 -1.000000e+000
      vertex  0.000000e+000 -1.912000e+000 -1.000000e+000
    endloop
  endfacet
  facet normal 0.000000e+000 0.000000e+000 -1.000000e+000
    outer loop
      vertex  0.000000e+000 -1.912000e+000 -1.000000e+000
      vertex  1.000000e+000 -9.560000e-001 -1.000000e+000
      vertex  1.000000e+000 -1.912000e+000 -1.000000e+000
    endloop
  endfacet
  facet normal -1.000000e+000 0.000000e+000 0.000000e+000
    outer loop
      vertex  -1.000000e+000 0.000000e+000 -3.694617e-001
      vertex  -1.000000e+000 9.560000e-001 -1.000000e+000
      vertex  -1.000000e+000 0.000000e+000 -1.000000e+000
    endloop
  endfacet
  facet normal -1.000000e+000 0.000000e+000 0.000000e+000
    outer loop
      vertex  -1.000000e+000 9.560000e-001 -1.000000e+000
      vertex  -1.000000e+000 1.912000e+000 -3.843191e-001
      vertex  -1.000000e+000 1.912000e+000 -1.000000e+000
    endloop
  endfacet
  facet normal -1.000000e+000 -0.000000e+000 -0.000000e+000
    outer loop
      vertex  -1.000000e+000 1.912000e+000 2.313618e-001
      vertex  -1.000000e+000 1.912000e+000 -3.843191e-001
      vertex  -1.000000e+000 9.560000e-001 2.462192e-001
    endloop
  endfacet
  facet normal -1.000000e+000 -0.000000e+000 0.000000e+000
    outer loop
      vertex  -1.000000e+000 9.560000e-001 2.462192e-001
      vertex  -1.000000e+000 0.000000e+000 -3.694617e-001
      vertex  -1.000000e+000 0.000000e+000 2.610767e-001
    endloop
  endfacet
  facet normal 0.000000e+000 -1.198296e-001 9.927945e-001
    outer loop
      vertex  0.000000e+000 -3.824000e+000 3.029962e-002
      vertex  -8.170000e-001 -2.868000e+000 1.456881e-001
      vertex  -6.340000e-001 -3.824000e+000 3.029962e-002
    endloop
  endfacet
  facet normal 0.000000e+000 -1.198296e-001 9.927945e-001
    outer loop
      vertex  -8.170000e-001 -2.868000e+000 1.456881e-001
      vertex  0.000000e+000 -1.912000e+000 2.610767e-001
      vertex  -1.000000e+000 -1.912000e+000 2.610767e-001
    endloop
  endfacet
  facet normal 0.000000e+000 -1.198296e-001 9.927945e-001
    outer loop
      vertex  1.000000e+000 -1.912000e+000 2.610767e-001
      vertex  0.000000e+000 -1.912000e+000 2.610767e-001
      vertex  8.170000e-001 -2.868000e+000 1.456881e-001
    endloop
  endfacet
  facet normal 0.000000e+000 -1.198296e-001 9.927945e-001
    outer loop
      vertex  8.170000e-001 -2.868000e+000 1.456881e-001
      vertex  0.000000e+000 -3.824000e+000 3.029962e-002
      vertex  6.340000e-001 -3.824000e+000 3.029962e-002
    endloop
  endfacet
  facet normal 0.000000e+000 0.000000e+000 -1.000000e+000
    outer loop
      vertex  0.000000e+000 1.912000e+000 -1.000000e+000
      vertex  1.000000e+000 2.390000e+000 -1.000000e+000
      vertex  1.000000e+000 1.912000e+000 -1.000000e+000
    endloop
  endfacet
  facet normal 0.000000e+000 0.000000e+000 -1.000000e+000
    outer loop
      vertex  1.000000e+000 2.390000e+000 -1.000000e+000
      vertex  0.000000e+000 2.868000e+000 -1.000000e+000
      vertex  1.000000e+000 2.868000e+000 -1.000000e+000
    endloop
  endfacet
  facet normal 0.000000e+000 0.000000e+000 -1.000000e+000
    outer loop
      vertex  -1.000000e+000 2.868000e+000 -1.000000e+000
      vertex  0.000000e+000 2.868000e+000 -1.000000e+000
      vertex  -1.000000e+000 2.390000e+000 -1.000000e+000
    endloop
  endfacet
  facet normal 0.000000e+000 0.000000e+000 -1.000000e+000
    outer loop
      vertex  -1.000000e+000 2.390000e+000 -1.000000e+000
      vertex  0.000000e+000 1.912000e+000 -1.000000e+000
      vertex  -1.000000e+000 1.912000e+000 -1.000000e+000
    endloop
  endfacet
  facet normal 8.736846e-001 0.000000e+000 4.864928e-001
    outer loop
      vertex  7.860000e-001 1.912000e+000 6.156809e-001
      vertex  5.720000e-001 2.390000e+000 1.000000e+000
      vertex  5.720000e-001 1.912000e+000 1.000000e+000
    endloop
  endfacet
  facet normal 8.736845e-001 -0.000000e+000 4.864928e-001
    outer loop
      vertex  5.720000e-001 2.390000e+000 1.000000e+000
      vertex  7.860000e-001 2.868000e+000 6.156809e-001
      vertex  5.720000e-001 2.868000e+000 1.000000e+000
    endloop
  endfacet
  facet normal 8.736845e-001 0.000000e+000 4.864928e-001
    outer loop
      vertex  1.000000e+000 2.868000e+000 2.313618e-001
      vertex  7.860000e-001 2.868000e+000 6.156809e-001
      vertex  1.000000e+000 2.390000e+000 2.313618e-001
    endloop
  endfacet
  facet normal 8.736846e-001 0.000000e+000 4.864928e-001
    outer loop
      vertex  1.000000e+000 2.390000e+000 2.313618e-001
      vertex  7.860000e-001 1.912000e+000 6.156809e-001
      vertex  1.000000e+000 1.912000e+000 2.313618e-001
    endloop
  endfacet
  facet normal -9.821674e-001 -1.880090e-001 -0.000000e+000
    outer loop
      vertex  -6.340000e-001 -3.824000e+000 -3.694617e-001
      vertex  -8.170000e-001 -2.868000e+000 -8.846115e-001
      vertex  -6.340000e-001 -3.824000e+000 -7.692230e-001
    endloop
  endfacet
  facet normal -9.821674e-001 -1.880090e-001 0.000000e+000
    outer loop
      vertex  -8.170000e-001 -2.868000e+000 -8.846115e-001
      vertex  -1.000000e+000 -1.912000e+000 -3.694617e-001
      vertex  -1.000000e+000 -1.912000e+000 -1.000000e+000
    endloop
  endfacet
  facet normal -9.821674e-001 -1.880090e-001 -0.000000e+000
    outer loop
      vertex  -1.000000e+000 -1.912000e+000 2.610767e-001
      vertex  -1.000000e+000 -1.912000e+000 -3.694617e-001
      vertex  -8.170000e-001 -2.868000e+000 1.456881e-001
    endloop
  endfacet
  facet normal -9.821672e-001 -1.880090e-001 0.000000e+000
    outer loop
      vertex  -8.170000e-001 -2.868000e+000 1.456881e-001
      vertex  -6.340000e-001 -3.824000e+000 -3.694617e-001
      vertex  -6.340000e-001 -3.824000e+000 3.029962e-002
    endloop
  endfacet
  facet normal 0.000000e+000 0.000000e+000 1.000000e+000
    outer loop
      vertex  0.000000e+000 1.912000e+000 1.000000e+000
      vertex  -5.720000e-001 2.390000e+000 1.000000e+000
      vertex  -5.720000e-001 1.912000e+000 1.000000e+000
    endloop
  endfacet
  facet normal 0.000000e+000 0.000000e+000 1.000000e+000
    outer loop
      vertex  -5.720000e-001 2.390000e+000 1.000000e+000
      vertex  0.000000e+000 2.868000e+000 1.000000e+000
      vertex  -5.720000e-001 2.868000e+000 1.000000e+000
    endloop
  endfacet
  facet normal 0.000000e+000 0.000000e+000 1.000000e+000
    outer loop
      vertex  5.720000e-001 2.868000e+000 1.000000e+000
      vertex  0.000000e+000 2.868000e+000 1.000000e+000
      vertex  5.720000e-001 2.390000e+000 1.000000e+000
    endloop
  endfacet
  facet normal 0.000000e+000 0.000000e+000 1.000000e+000
    outer loop
      vertex  5.720000e-001 2.390000e+000 1.000000e+000
      vertex  0.000000e+000 1.912000e+000 1.000000e+000
      vertex  5.720000e-001 1.912000e+000 1.000000e+000
    endloop
  endfacet
  facet normal -0.000000e+000 -1.198296e-001 -9.927945e-001
    outer loop
      vertex  6.340000e-001 -3.824000e+000 -7.692230e-001
      vertex  0.000000e+000 -3.824000e+000 -7.692230e-001
      vertex  8.170000e-001 -2.868000e+000 -8.846115e-001
    endloop
  endfacet
  facet normal 0.000000e+000 -1.198296e-001 -9.927945e-001
    outer loop
      vertex  8.170000e-001 -2.868000e+000 -8.846115e-001
      vertex  0.000000e+000 -1.912000e+000 -1.000000e+000
      vertex  1.000000e+000 -1.912000e+000 -1.000000e+000
    endloop
  endfacet
  facet normal 0.000000e+000 -1.198296e-001 -9.927945e-001
    outer loop
      vertex  -1.000000e+000 -1.912000e+000 -1.000000e+000
      vertex  0.000000e+000 -1.912000e+000 -1.000000e+000
      vertex  -8.170000e-001 -2.868000e+000 -8.846115e-001
    endloop
  endfacet
  facet normal 0.000000e+000 -1.198296e-001 -9.927945e-001
    outer loop
      vertex  -6.340000e-001 -3.824000e+000 -7.692230e-001
      vertex  -8.170000e-001 -2.868000e+000 -8.846115e-001
      vertex  0.000000e+000 -3.824000e+000 -7.692230e-001
    endloop
  endfacet
  facet normal 9.821672e-001 -1.880090e-001 0.000000e+000
    outer loop
      vertex  6.340000e-001 -3.824000e+000 3.029962e-002
      vertex  6.340000e-001 -3.824000e+000 -3.694617e-001
      vertex  8.170000e-001 -2.868000e+000 1.456881e-001
    endloop
  endfacet
  facet normal 9.821674e-001 -1.880090e-001 0.000000e+000
    outer loop
      vertex  8.170000e-001 -2.868000e+000 1.456881e-001
      vertex  1.000000e+000 -1.912000e+000 -3.694617e-001
      vertex  1.000000e+000 -1.912000e+000 2.610767e-001
    endloop
  endfacet
  facet normal 9.821674e-001 -1.880090e-001 0.000000e+000
    outer loop
      vertex  1.000000e+000 -1.912000e+000 -1.000000e+000
      vertex  1.000000e+000 -1.912000e+000 -3.694617e-001
      vertex  8.170000e-001 -2.868000e+000 -8.846115e-001
    endloop
  endfacet
  facet normal 9.821674e-001 -1.880090e-001 0.000000e+000
    outer loop
      vertex  6.340000e-001 -3.824000e+000 -7.692230e-001
      vertex  8.170000e-001 -2.868000e+000 -8.846115e-001
      vertex  6.340000e-001 -3.824000e+000 -3.694617e-001
    endloop
  endfacet
  facet normal -1.000000e+000 0.000000e+000 0.000000e+000
    outer loop
      vertex  -1.000000e+000 1.912000e+000 -3.843191e-001
      vertex  -1.000000e+000 2.390000e+000 -1.000000e+000
      vertex  -1.000000e+000 1.912000e+000 -1.000000e+000
    endloop
  endfacet
  facet normal -1.000000e+000 0.000000e+000 0.000000e+000
    outer loop
      vertex  -1.000000e+000 2.390000e+000 -1.000000e+000
      vertex  -1.000000e+000 2.868000e+000 -3.843191e-001
      vertex  -1.000000e+000 2.868000e+000 -1.000000e+000
    endloop
  endfacet
  facet normal -1.000000e+000 -0.000000e+000 -0.000000e+000
    outer loop
      vertex  -1.000000e+000 2.868000e+000 2.313618e-001
      vertex  -1.000000e+000 2.868000e+000 -3.843191e-001
      vertex  -1.000000e+000 2.390000e+000 2.313618e-001
    endloop
  endfacet
  facet normal -1.000000e+000 -0.000000e+000 0.000000e+000
    outer loop
      vertex  -1.000000e+000 2.390000e+000 2.313618e-001
      vertex  -1.000000e+000 1.912000e+000 -3.843191e-001
      vertex  -1.000000e+000 1.912000e+000 2.313618e-001
    endloop
  endfacet
  facet normal 0.000000e+000 4.896216e-001 -8.719350e-001
    outer loop
      vertex  -1.000000e+000 2.868000e+000 -1.000000e+000
      vertex  -8.210000e-001 3.346000e+000 -7.315865e-001
      vertex  0.000000e+000 2.868000e+000 -1.000000e+000
    endloop
  endfacet
  facet normal 0.000000e+000 4.896216e-001 -8.719350e-001
    outer loop
      vertex  0.000000e+000 2.868000e+000 -1.000000e+000
      vertex  8.210000e-001 3.346000e+000 -7.315865e-001
      vertex  1.000000e+000 2.868000e+000 -1.000000e+000
    endloop
  endfacet
  facet normal 0.000000e+000 4.896216e-001 -8.719350e-001
    outer loop
      vertex  8.210000e-001 3.346000e+000 -7.315865e-001
      vertex  0.000000e+000 3.824000e+000 -4.631730e-001
      vertex  6.420000e-001 3.824000e+000 -4.631730e-001
    endloop
  endfacet
  facet normal 0.000000e+000 4.896216e-001 -8.719350e-001
    outer loop
      vertex  -6.420000e-001 3.824000e+000 -4.631730e-001
      vertex  0.000000e+000 3.824000e+000 -4.631730e-001
      vertex  -8.210000e-001 3.346000e+000 -7.315865e-001
    endloop
  endfacet
  facet normal 9.364901e-001 3.506941e-001 -0.000000e+000
    outer loop
      vertex  1.000000e+000 2.868000e+000 -1.000000e+000
      vertex  8.210000e-001 3.346000e+000 -7.315865e-001
      vertex  1.000000e+000 2.868000e+000 -3.843191e-001
    endloop
  endfacet
  facet normal 9.364901e-001 3.506941e-001 -0.000000e+000
    outer loop
      vertex  1.000000e+000 2.868000e+000 -3.843191e-001
      vertex  8.210000e-001 3.346000e+000 2.583461e-001
      vertex  1.000000e+000 2.868000e+000 2.313618e-001
    endloop
  endfacet
  facet normal 9.364901e-001 3.506940e-001 0.000000e+000
    outer loop
      vertex  8.210000e-001 3.346000e+000 2.583461e-001
      vertex  6.420000e-001 3.824000e+000 -8.892129e-002
      vertex  6.420000e-001 3.824000e+000 2.853305e-001
    endloop
  endfacet
  facet normal 9.364901e-001 3.506939e-001 -0.000000e+000
    outer loop
      vertex  6.420000e-001 3.824000e+000 -4.631730e-001
      vertex  6.420000e-001 3.824000e+000 -8.892129e-002
      vertex  8.210000e-001 3.346000e+000 -7.315865e-001
    endloop
  endfacet
  facet normal 0.000000e+000 5.987497e-001 8.009362e-001
    outer loop
      vertex  -6.070000e-001 3.346000e+000 6.426652e-001
      vertex  0.000000e+000 3.824000e+000 2.853305e-001
      vertex  -6.420000e-001 3.824000e+000 2.853305e-001
    endloop
  endfacet
  facet normal 0.000000e+000 5.987497e-001 8.009362e-001
    outer loop
      vertex  6.420000e-001 3.824000e+000 2.853305e-001
      vertex  0.000000e+000 3.824000e+000 2.853305e-001
      vertex  6.070000e-001 3.346000e+000 6.426652e-001
    endloop
  endfacet
  facet normal 0.000000e+000 5.987498e-001 8.009361e-001
    outer loop
      vertex  5.720000e-001 2.868000e+000 1.000000e+000
      vertex  6.070000e-001 3.346000e+000 6.426652e-001
      vertex  0.000000e+000 2.868000e+000 1.000000e+000
    endloop
  endfacet
  facet normal 0.000000e+000 5.987498e-001 8.009361e-001
    outer loop
      vertex  0.000000e+000 2.868000e+000 1.000000e+000
      vertex  -6.070000e-001 3.346000e+000 6.426652e-001
      vertex  -5.720000e-001 2.868000e+000 1.000000e+000
    endloop
  endfacet
  facet normal -8.369046e-001 2.870939e-001 4.660127e-001
    outer loop
      vertex  -5.720000e-001 2.868000e+000 1.000000e+000
      vertex  -6.070000e-001 3.346000e+000 6.426652e-001
      vertex  -7.860000e-001 2.868000e+000 6.156809e-001
    endloop
  endfacet
  facet normal -8.369046e-001 2.870939e-001 4.660127e-001
    outer loop
      vertex  -7.860000e-001 2.868000e+000 6.156809e-001
      vertex  -8.210000e-001 3.346000e+000 2.583461e-001
      vertex  -1.000000e+000 2.868000e+000 2.313618e-001
    endloop
  endfacet
  facet normal -8.369046e-001 2.870939e-001 4.660127e-001
    outer loop
      vertex  -6.420000e-001 3.824000e+000 2.853305e-001
      vertex  -8.210000e-001 3.346000e+000 2.583461e-001
      vertex  -6.070000e-001 3.346000e+000 6.426652e-001
    endloop
  endfacet
  facet normal -6.337298e-001 -7.735545e-001 -0.000000e+000
    outer loop
      vertex  -6.340000e-001 -3.824000e+000 3.029962e-002
      vertex  -6.340000e-001 -3.824000e+000 -3.694617e-001
      vertex  -3.170000e-001 -4.083700e+000 -1.695810e-001
    endloop
  endfacet
  facet normal -6.337298e-001 -7.735545e-001 0.000000e+000
    outer loop
      vertex  0.000000e+000 -4.343400e+000 -3.694617e-001
      vertex  -3.170000e-001 -4.083700e+000 -1.695810e-001
      vertex  -3.170000e-001 -4.083700e+000 -5.693423e-001
    endloop
  endfacet
  facet normal -6.337298e-001 -7.735545e-001 0.000000e+000
    outer loop
      vertex  -6.340000e-001 -3.824000e+000 -7.692230e-001
      vertex  -3.170000e-001 -4.083700e+000 -5.693423e-001
      vertex  -6.340000e-001 -3.824000e+000 -3.694617e-001
    endloop
  endfacet
  facet normal -0.000000e+000 -6.099239e-001 -7.924600e-001
    outer loop
      vertex  0.000000e+000 -3.824000e+000 -7.692230e-001
      vertex  -3.170000e-001 -4.083700e+000 -5.693423e-001
      vertex  -6.340000e-001 -3.824000e+000 -7.692230e-001
    endloop
  endfacet
  facet normal 0.000000e+000 -6.099238e-001 -7.924600e-001
    outer loop
      vertex  0.000000e+000 -4.343400e+000 -3.694617e-001
      vertex  -3.170000e-001 -4.083700e+000 -5.693423e-001
      vertex  3.170000e-001 -4.083700e+000 -5.693423e-001
    endloop
  endfacet
  facet normal 0.000000e+000 -6.099239e-001 -7.924600e-001
    outer loop
      vertex  3.170000e-001 -4.083700e+000 -5.693423e-001
      vertex  0.000000e+000 -3.824000e+000 -7.692230e-001
      vertex  6.340000e-001 -3.824000e+000 -7.692230e-001
    endloop
  endfacet
  facet normal 6.337298e-001 -7.735545e-001 0.000000e+000
    outer loop
      vertex  6.340000e-001 -3.824000e+000 -3.694617e-001
      vertex  3.170000e-001 -4.083700e+000 -5.693423e-001
      vertex  6.340000e-001 -3.824000e+000 -7.692230e-001
    endloop
  endfacet
  facet normal 6.337298e-001 -7.735545e-001 0.000000e+000
    outer loop
      vertex  0.000000e+000 -4.343400e+000 -3.694617e-001
      vertex  3.170000e-001 -4.083700e+000 -5.693423e-001
      vertex  3.170000e-001 -4.083700e+000 -1.695810e-001
    endloop
  endfacet
  facet normal 6.337298e-001 -7.735545e-001 0.000000e+000
    outer loop
      vertex  3.170000e-001 -4.083700e+000 -1.695810e-001
      vertex  6.340000e-001 -3.824000e+000 -3.694617e-001
      vertex  6.340000e-001 -3.824000e+000 3.029962e-002
    endloop
  endfacet
  facet normal 0.000000e+000 -6.099239e-001 7.924600e-001
    outer loop
      vertex  6.340000e-001 -3.824000e+000 3.029962e-002
      vertex  0.000000e+000 -3.824000e+000 3.029962e-002
      vertex  3.170000e-001 -4.083700e+000 -1.695810e-001
    endloop
  endfacet
  facet normal 0.000000e+000 -6.099239e-001 7.924600e-001
    outer loop
      vertex  3.170000e-001 -4.083700e+000 -1.695810e-001
      vertex  -3.170000e-001 -4.083700e+000 -1.695810e-001
      vertex  0.000000e+000 -4.343400e+000 -3.694617e-001
    endloop
  endfacet
  facet normal 0.000000e+000 -6.099239e-001 7.924600e-001
    outer loop
      vertex  -6.340000e-001 -3.824000e+000 3.029962e-002
      vertex  -3.170000e-001 -4.083700e+000 -1.695810e-001
      vertex  0.000000e+000 -3.824000e+000 3.029962e-002
    endloop
  endfacet
  facet normal 1.000000e+000 0.000000e+000 0.000000e+000
    outer loop
      vertex  1.000000e+000 1.912000e+000 -1.000000e+000
      vertex  1.000000e+000 2.390000e+000 -1.000000e+000
      vertex  1.000000e+000 1.912000e+000 -3.843191e-001
    endloop
  endfacet
  facet normal 1.000000e+000 0.000000e+000 0.000000e+000
    outer loop
      vertex  1.000000e+000 1.912000e+000 -3.843191e-001
      vertex  1.000000e+000 2.390000e+000 2.313618e-001
      vertex  1.000000e+000 1.912000e+000 2.313618e-001
    endloop
  endfacet
  facet normal 1.000000e+000 0.000000e+000 0.000000e+000
    outer loop
      vertex  1.000000e+000 2.868000e+000 2.313618e-001
      vertex  1.000000e+000 2.390000e+000 2.313618e-001
      vertex  1.000000e+000 2.868000e+000 -3.843191e-001
    endloop
  endfacet
  facet normal 1.000000e+000 0.000000e+000 -0.000000e+000
    outer loop
      vertex  1.000000e+000 2.868000e+000 -1.000000e+000
      vertex  1.000000e+000 2.868000e+000 -3.843191e-001
      vertex  1.000000e+000 2.390000e+000 -1.000000e+000
    endloop
  endfacet
  facet normal -8.736846e-001 0.000000e+000 4.864928e-001
    outer loop
      vertex  -5.720000e-001 1.912000e+000 1.000000e+000
      vertex  -5.720000e-001 2.390000e+000 1.000000e+000
      vertex  -7.860000e-001 1.912000e+000 6.156809e-001
    endloop
  endfacet
  facet normal -8.736846e-001 0.000000e+000 4.864928e-001
    outer loop
      vertex  -7.860000e-001 1.912000e+000 6.156809e-001
      vertex  -1.000000e+000 2.390000e+000 2.313618e-001
      vertex  -1.000000e+000 1.912000e+000 2.313618e-001
    endloop
  endfacet
  facet normal -8.736845e-001 0.000000e+000 4.864928e-001
    outer loop
      vertex  -1.000000e+000 2.868000e+000 2.313618e-001
      vertex  -1.000000e+000 2.390000e+000 2.313618e-001
      vertex  -7.860000e-001 2.868000e+000 6.156809e-001
    endloop
  endfacet
  facet normal -8.736845e-001 0.000000e+000 4.864928e-001
    outer loop
      vertex  -5.720000e-001 2.868000e+000 1.000000e+000
      vertex  -7.860000e-001 2.868000e+000 6.156809e-001
      vertex  -5.720000e-001 2.390000e+000 1.000000e+000
    endloop
  endfacet
  facet normal -8.736597e-001 7.560502e-003 4.864790e-001
    outer loop
      vertex  -1.000000e+000 0.000000e+000 2.610767e-001
      vertex  -7.860000e-001 9.560000e-001 6.305383e-001
      vertex  -1.000000e+000 9.560000e-001 2.462192e-001
    endloop
  endfacet
  facet normal -8.736597e-001 7.560494e-003 4.864790e-001
    outer loop
      vertex  -1.000000e+000 1.912000e+000 2.313618e-001
      vertex  -1.000000e+000 9.560000e-001 2.462192e-001
      vertex  -7.860000e-001 1.912000e+000 6.156809e-001
    endloop
  endfacet
  facet normal -8.736597e-001 7.560508e-003 4.864790e-001
    outer loop
      vertex  -5.720000e-001 1.912000e+000 1.000000e+000
      vertex  -7.860000e-001 1.912000e+000 6.156809e-001
      vertex  -7.860000e-001 9.560000e-001 6.305383e-001
    endloop
  endfacet
  facet normal -9.364901e-001 3.506939e-001 0.000000e+000
    outer loop
      vertex  -8.210000e-001 3.346000e+000 -7.315865e-001
      vertex  -6.420000e-001 3.824000e+000 -8.892129e-002
      vertex  -6.420000e-001 3.824000e+000 -4.631730e-001
    endloop
  endfacet
  facet normal -9.364901e-001 3.506939e-001 0.000000e+000
    outer loop
      vertex  -6.420000e-001 3.824000e+000 2.853305e-001
      vertex  -6.420000e-001 3.824000e+000 -8.892129e-002
      vertex  -8.210000e-001 3.346000e+000 2.583461e-001
    endloop
  endfacet
  facet normal -9.364901e-001 3.506941e-001 0.000000e+000
    outer loop
      vertex  -8.210000e-001 3.346000e+000 2.583461e-001
      vertex  -1.000000e+000 2.868000e+000 -3.843191e-001
      vertex  -1.000000e+000 2.868000e+000 2.313618e-001
    endloop
  endfacet
  facet normal -9.364901e-001 3.506941e-001 0.000000e+000
    outer loop
      vertex  -1.000000e+000 2.868000e+000 -3.843191e-001
      vertex  -8.210000e-001 3.346000e+000 -7.315865e-001
      vertex  -1.000000e+000 2.868000e+000 -1.000000e+000
    endloop
  endfacet
  facet normal 1.000000e+000 0.000000e+000 0.000000e+000
    outer loop
      vertex  1.000000e+000 0.000000e+000 -1.000000e+000
      vertex  1.000000e+000 9.560000e-001 -1.000000e+000
      vertex  1.000000e+000 0.000000e+000 -3.694617e-001
    endloop
  endfacet
  facet normal 1.000000e+000 0.000000e+000 0.000000e+000
    outer loop
      vertex  1.000000e+000 0.000000e+000 -3.694617e-001
      vertex  1.000000e+000 9.560000e-001 2.462192e-001
      vertex  1.000000e+000 0.000000e+000 2.610767e-001
    endloop
  endfacet
  facet normal 1.000000e+000 0.000000e+000 0.000000e+000
    outer loop
      vertex  1.000000e+000 1.912000e+000 2.313618e-001
      vertex  1.000000e+000 9.560000e-001 2.462192e-001
      vertex  1.000000e+000 1.912000e+000 -3.843191e-001
    endloop
  endfacet
  facet normal 1.000000e+000 0.000000e+000 -0.000000e+000
    outer loop
      vertex  1.000000e+000 1.912000e+000 -1.000000e+000
      vertex  1.000000e+000 1.912000e+000 -3.843191e-001
      vertex  1.000000e+000 9.560000e-001 -1.000000e+000
    endloop
  endfacet
  facet normal 8.369046e-001 2.870938e-001 4.660127e-001
    outer loop
      vertex  6.070000e-001 3.346000e+000 6.426652e-001
      vertex  8.210000e-001 3.346000e+000 2.583461e-001
      vertex  6.420000e-001 3.824000e+000 2.853305e-001
    endloop
  endfacet
  facet normal 8.369046e-001 2.870939e-001 4.660127e-001
    outer loop
      vertex  8.210000e-001 3.346000e+000 2.583461e-001
      vertex  7.860000e-001 2.868000e+000 6.156809e-001
      vertex  1.000000e+000 2.868000e+000 2.313618e-001
    endloop
  endfacet
  facet normal 8.369045e-001 2.870940e-001 4.660126e-001
    outer loop
      vertex  7.860000e-001 2.868000e+000 6.156809e-001
      vertex  6.070000e-001 3.346000e+000 6.426652e-001
      vertex  5.720000e-001 2.868000e+000 1.000000e+000
    endloop
  endfacet
  facet normal -1.000000e+000 0.000000e+000 0.000000e+000
    outer loop
      vertex  -1.000000e+000 -9.560000e-001 1.072253e-001
      vertex  -1.000000e+000 -7.692567e-002 1.841510e-001
      vertex  -1.000000e+000 -1.538513e-001 1.072253e-001
    endloop
  endfacet
  facet normal -1.000000e+000 -0.000000e+000 0.000000e+000
    outer loop
      vertex  -1.000000e+000 0.000000e+000 2.610767e-001
      vertex  -1.000000e+000 -7.692567e-002 1.841510e-001
      vertex  -1.000000e+000 -9.560000e-001 2.610767e-001
    endloop
  endfacet
  facet normal -1.000000e+000 0.000000e+000 0.000000e+000
    outer loop
      vertex  -1.000000e+000 -1.912000e+000 2.610767e-001
      vertex  -1.000000e+000 -9.560000e-001 2.610767e-001
      vertex  -1.000000e+000 -1.835074e+000 1.841510e-001
    endloop
  endfacet
  facet normal -1.000000e+000 0.000000e+000 0.000000e+000
    outer loop
      vertex  -1.000000e+000 -1.835074e+000 1.841510e-001
      vertex  -1.000000e+000 -9.560000e-001 1.072253e-001
      vertex  -1.000000e+000 -1.758149e+000 1.072253e-001
    endloop
  endfacet
  facet normal -1.000000e+000 0.000000e+000 0.000000e+000
    outer loop
      vertex  -1.000000e+000 -1.538513e-001 -3.694617e-001
      vertex  -1.000000e+000 -7.692567e-002 -9.230743e-001
      vertex  -1.000000e+000 -1.538513e-001 -8.461487e-001
    endloop
  endfacet
  facet normal -1.000000e+000 0.000000e+000 0.000000e+000
    outer loop
      vertex  -1.000000e+000 0.000000e+000 -1.000000e+000
      vertex  -1.000000e+000 -7.692567e-002 -9.230743e-001
      vertex  -1.000000e+000 0.000000e+000 -3.694617e-001
    endloop
  endfacet
  facet normal -1.000000e+000 0.000000e+000 -0.000000e+000
    outer loop
      vertex  -1.000000e+000 0.000000e+000 2.610767e-001
      vertex  -1.000000e+000 0.000000e+000 -3.694617e-001
      vertex  -1.000000e+000 -7.692567e-002 1.841510e-001
    endloop
  endfacet
  facet normal -1.000000e+000 0.000000e+000 0.000000e+000
    outer loop
      vertex  -1.000000e+000 -7.692567e-002 1.841510e-001
      vertex  -1.000000e+000 -1.538513e-001 -3.694617e-001
      vertex  -1.000000e+000 -1.538513e-001 1.072253e-001
    endloop
  endfacet
  facet normal -1.000000e+000 -0.000000e+000 0.000000e+000
    outer loop
      vertex  -1.000000e+000 -9.560000e-001 -8.461487e-001
      vertex  -1.000000e+000 -1.835074e+000 -9.230743e-001
      vertex  -1.000000e+000 -1.758149e+000 -8.461487e-001
    endloop
  endfacet
  facet normal -1.000000e+000 0.000000e+000 -0.000000e+000
    outer loop
      vertex  -1.000000e+000 -1.835074e+000 -9.230743e-001
      vertex  -1.000000e+000 -9.560000e-001 -1.000000e+000
      vertex  -1.000000e+000 -1.912000e+000 -1.000000e+000
    endloop
  endfacet
  facet normal -1.000000e+000 0.000000e+000 0.000000e+000
    outer loop
      vertex  -1.000000e+000 -9.560000e-001 -1.000000e+000
      vertex  -1.000000e+000 -7.692567e-002 -9.230743e-001
      vertex  -1.000000e+000 0.000000e+000 -1.000000e+000
    endloop
  endfacet
  facet normal -1.000000e+000 0.000000e+000 0.000000e+000
    outer loop
      vertex  -1.000000e+000 -7.692567e-002 -9.230743e-001
      vertex  -1.000000e+000 -9.560000e-001 -8.461487e-001
      vertex  -1.000000e+000 -1.538513e-001 -8.461487e-001
    endloop
  endfacet
  facet normal -1.000000e+000 0.000000e+000 0.000000e+000
    outer loop
      vertex  -1.000000e+000 -1.758149e+000 -3.694617e-001
      vertex  -1.000000e+000 -1.835074e+000 1.841510e-001
      vertex  -1.000000e+000 -1.758149e+000 1.072253e-001
    endloop
  endfacet
  facet normal -1.000000e+000 0.000000e+000 0.000000e+000
    outer loop
      vertex  -1.000000e+000 -1.912000e+000 2.610767e-001
      vertex  -1.000000e+000 -1.835074e+000 1.841510e-001
      vertex  -1.000000e+000 -1.912000e+000 -3.694617e-001
    endloop
  endfacet
  facet normal -1.000000e+000 0.000000e+000 0.000000e+000
    outer loop
      vertex  -1.000000e+000 -1.912000e+000 -1.000000e+000
      vertex  -1.000000e+000 -1.912000e+000 -3.694617e-001
      vertex  -1.000000e+000 -1.835074e+000 -9.230743e-001
    endloop
  endfacet
  facet normal -1.000000e+000 0.000000e+000 0.000000e+000
    outer loop
      vertex  -1.000000e+000 -1.835074e+000 -9.230743e-001
      vertex  -1.000000e+000 -1.758149e+000 -3.694617e-001
      vertex  -1.000000e+000 -1.758149e+000 -8.461487e-001
    endloop
  endfacet
  facet normal 1.000000e+000 0.000000e+000 0.000000e+000
    outer loop
      vertex  1.000000e+000 -9.560000e-001 1.072253e-001
      vertex  1.000000e+000 -1.835074e+000 1.841510e-001
      vertex  1.000000e+000 -1.758149e+000 1.072253e-001
    endloop
  endfacet
  facet normal 1.000000e+000 0.000000e+000 -0.000000e+000
    outer loop
      vertex  1.000000e+000 -1.835074e+000 1.841510e-001
      vertex  1.000000e+000 -9.560000e-001 2.610767e-001
      vertex  1.000000e+000 -1.912000e+000 2.610767e-001
    endloop
  endfacet
  facet normal 1.000000e+000 -0.000000e+000 0.000000e+000
    outer loop
      vertex  1.000000e+000 -9.560000e-001 2.610767e-001
      vertex  1.000000e+000 -7.692567e-002 1.841510e-001
      vertex  1.000000e+000 0.000000e+000 2.610767e-001
    endloop
  endfacet
  facet normal 1.000000e+000 0.000000e+000 0.000000e+000
    outer loop
      vertex  1.000000e+000 -7.692567e-002 1.841510e-001
      vertex  1.000000e+000 -9.560000e-001 1.072253e-001
      vertex  1.000000e+000 -1.538513e-001 1.072253e-001
    endloop
  endfacet
  facet normal 1.000000e+000 0.000000e+000 0.000000e+000
    outer loop
      vertex  1.000000e+000 -1.758149e+000 -3.694617e-001
      vertex  1.000000e+000 -1.835074e+000 -9.230743e-001
      vertex  1.000000e+000 -1.758149e+000 -8.461487e-001
    endloop
  endfacet
  facet normal 1.000000e+000 0.000000e+000 0.000000e+000
    outer loop
      vertex  1.000000e+000 -1.912000e+000 -1.000000e+000
      vertex  1.000000e+000 -1.835074e+000 -9.230743e-001
      vertex  1.000000e+000 -1.912000e+000 -3.694617e-001
    endloop
  endfacet
  facet normal 1.000000e+000 0.000000e+000 0.000000e+000
    outer loop
      vertex  1.000000e+000 -1.912000e+000 2.610767e-001
      vertex  1.000000e+000 -1.912000e+000 -3.694617e-001
      vertex  1.000000e+000 -1.835074e+000 1.841510e-001
    endloop
  endfacet
  facet normal 1.000000e+000 0.000000e+000 0.000000e+000
    outer loop
      vertex  1.000000e+000 -1.835074e+000 1.841510e-001
      vertex  1.000000e+000 -1.758149e+000 -3.694617e-001
      vertex  1.000000e+000 -1.758149e+000 1.072253e-001
    endloop
  endfacet
  facet normal 1.000000e+000 -0.000000e+000 0.000000e+000
    outer loop
      vertex  1.000000e+000 -9.560000e-001 -8.461487e-001
      vertex  1.000000e+000 -7.692567e-002 -9.230743e-001
      vertex  1.000000e+000 -1.538513e-001 -8.461487e-001
    endloop
  endfacet
  facet normal 1.000000e+000 0.000000e+000 0.000000e+000
    outer loop
      vertex  1.000000e+000 0.000000e+000 -1.000000e+000
      vertex  1.000000e+000 -7.692567e-002 -9.230743e-001
      vertex  1.000000e+000 -9.560000e-001 -1.000000e+000
    endloop
  endfacet
  facet normal 1.000000e+000 0.000000e+000 0.000000e+000
    outer loop
      vertex  1.000000e+000 -1.912000e+000 -1.000000e+000
      vertex  1.000000e+000 -9.560000e-001 -1.000000e+000
      vertex  1.000000e+000 -1.835074e+000 -9.230743e-001
    endloop
  endfacet
  facet normal 1.000000e+000 0.000000e+000 0.000000e+000
    outer loop
      vertex  1.000000e+000 -1.835074e+000 -9.230743e-001
      vertex  1.000000e+000 -9.560000e-001 -8.461487e-001
      vertex  1.000000e+000 -1.758149e+000 -8.461487e-001
    endloop
  endfacet
  facet normal 1.000000e+000 0.000000e+000 0.000000e+000
    outer loop
      vertex  1.000000e+000 -1.538513e-001 -3.694617e-001
      vertex  1.000000e+000 -7.692567e-002 1.841510e-001
      vertex  1.000000e+000 -1.538513e-001 1.072253e-001
    endloop
  endfacet
  facet normal 1.000000e+000 -0.000000e+000 0.000000e+000
    outer loop
      vertex  1.000000e+000 -7.692567e-002 1.841510e-001
      vertex  1.000000e+000 0.000000e+000 -3.694617e-001
      vertex  1.000000e+000 0.000000e+000 2.610767e-001
    endloop
  endfacet
  facet normal 1.000000e+000 0.000000e+000 0.000000e+000
    outer loop
      vertex  1.000000e+000 0.000000e+000 -3.694617e-001
      vertex  1.000000e+000 -7.692567e-002 -9.230743e-001
      vertex  1.000000e+000 0.000000e+000 -1.000000e+000
    endloop
  endfacet
  facet normal 1.000000e+000 0.000000e+000 0.000000e+000
    outer loop
      vertex  1.000000e+000 -7.692567e-002 -9.230743e-001
      vertex  1.000000e+000 -1.538513e-001 -3.694617e-001
      vertex  1.000000e+000 -1.538513e-001 -8.461487e-001
    endloop
  endfacet
  facet normal 0.000000e+000 0.000000e+000 -1.000000e+000
    outer loop
      vertex  -1.000000e+000 -1.538513e-001 1.072253e-001
      vertex  0.000000e+000 -1.538513e-001 1.072253e-001
      vertex  -1.000000e+000 -9.560000e-001 1.072253e-001
    endloop
  endfacet
  facet normal 0.000000e+000 0.000000e+000 -1.000000e+000
    outer loop
      vertex  -1.000000e+000 -1.758149e+000 1.072253e-001
      vertex  -1.000000e+000 -9.560000e-001 1.072253e-001
      vertex  0.000000e+000 -1.758149e+000 1.072253e-001
    endloop
  endfacet
  facet normal 0.000000e+000 0.000000e+000 -1.000000e+000
    outer loop
      vertex  1.000000e+000 -1.758149e+000 1.072253e-001
      vertex  0.000000e+000 -1.758149e+000 1.072253e-001
      vertex  1.000000e+000 -9.560000e-001 1.072253e-001
    endloop
  endfacet
  facet normal -0.000000e+000 -0.000000e+000 -1.000000e+000
    outer loop
      vertex  1.000000e+000 -1.538513e-001 1.072253e-001
      vertex  1.000000e+000 -9.560000e-001 1.072253e-001
      vertex  0.000000e+000 -1.538513e-001 1.072253e-001
    endloop
  endfacet
  facet normal -0.000000e+000 1.000000e+000 0.000000e+000
    outer loop
      vertex  -1.000000e+000 -1.758149e+000 1.072253e-001
      vertex  0.000000e+000 -1.758149e+000 1.072253e-001
      vertex  -1.000000e+000 -1.758149e+000 -3.694617e-001
    endloop
  endfacet
  facet normal 0.000000e+000 1.000000e+000 0.000000e+000
    outer loop
      vertex  -1.000000e+000 -1.758149e+000 -8.461487e-001
      vertex  -1.000000e+000 -1.758149e+000 -3.694617e-001
      vertex  0.000000e+000 -1.758149e+000 -8.461487e-001
    endloop
  endfacet
  facet normal 0.000000e+000 1.000000e+000 -0.000000e+000
    outer loop
      vertex  1.000000e+000 -1.758149e+000 -8.461487e-001
      vertex  0.000000e+000 -1.758149e+000 -8.461487e-001
      vertex  1.000000e+000 -1.758149e+000 -3.694617e-001
    endloop
  endfacet
  facet normal 0.000000e+000 1.000000e+000 0.000000e+000
    outer loop
      vertex  1.000000e+000 -1.758149e+000 1.072253e-001
      vertex  1.000000e+000 -1.758149e+000 -3.694617e-001
      vertex  0.000000e+000 -1.758149e+000 1.072253e-001
    endloop
  endfacet
  facet normal 0.000000e+000 0.000000e+000 1.000000e+000
    outer loop
      vertex  -1.000000e+000 -1.758149e+000 -8.461487e-001
      vertex  0.000000e+000 -1.758149e+000 -8.461487e-001
      vertex  -1.000000e+000 -9.560000e-001 -8.461487e-001
    endloop
  endfacet
  facet normal -0.000000e+000 0.000000e+000 1.000000e+000
    outer loop
      vertex  -1.000000e+000 -1.538513e-001 -8.461487e-001
      vertex  -1.000000e+000 -9.560000e-001 -8.461487e-001
      vertex  0.000000e+000 -1.538513e-001 -8.461487e-001
    endloop
  endfacet
  facet normal 0.000000e+000 0.000000e+000 1.000000e+000
    outer loop
      vertex  1.000000e+000 -1.538513e-001 -8.461487e-001
      vertex  0.000000e+000 -1.538513e-001 -8.461487e-001
      vertex  1.000000e+000 -9.560000e-001 -8.461487e-001
    endloop
  endfacet
  facet normal 0.000000e+000 -0.000000e+000 1.000000e+000
    outer loop
      vertex  1.000000e+000 -1.758149e+000 -8.461487e-001
      vertex  1.000000e+000 -9.560000e-001 -8.461487e-001
      vertex  0.000000e+000 -1.758149e+000 -8.461487e-001
    endloop
  endfacet
  facet normal 0.000000e+000 -1.000000e+000 0.000000e+000
    outer loop
      vertex  -1.000000e+000 -1.538513e-001 -8.461487e-001
      vertex  0.000000e+000 -1.538513e-001 -8.461487e-001
      vertex  -1.000000e+000 -1.538513e-001 -3.694617e-001
    endloop
  endfacet
  facet normal 0.000000e+000 -1.000000e+000 0.000000e+000
    outer loop
      vertex  -1.000000e+000 -1.538513e-001 1.072253e-001
      vertex  -1.000000e+000 -1.538513e-001 -3.694617e-001
      vertex  0.000000e+000 -1.538513e-001 1.072253e-001
    endloop
  endfacet
  facet normal -0.000000e+000 -1.000000e+000 -0.000000e+000
    outer loop
      vertex  1.000000e+000 -1.538513e-001 1.072253e-001
      vertex  0.000000e+000 -1.538513e-001 1.072253e-001
      vertex  1.000000e+000 -1.538513e-001 -3.694617e-001
    endloop
  endfacet
  facet normal 0.000000e+000 -1.000000e+000 0.000000e+000
    outer loop
      vertex  1.000000e+000 -1.538513e-001 -8.461487e-001
      vertex  1.000000e+000 -1.538513e-001 -3.694617e-001
      vertex  0.000000e+000 -1.538513e-001 -8.461487e-001
    endloop
  endfacet
endsolid vcg
